<?xml version="1.0" encoding="UTF-8"?>
<svg id="cloud_2" data-name="Layer 2" xmlns="http://www.w3.org/2000/svg" viewBox="0 0 1000 208.58">
  <defs>
    <style>
      .cls-1 {
        fill: #fff;
      }
    </style>
  </defs>
  <g id="_ÎÓÈ_1" data-name="—ÎÓÈ_1">
    <path class="cls-1" d="m998.95,96.69c-7.17,5.58-13.57,12.11-19,19.41-18.46-24.77-47.98-40.8-81.25-40.8-46.79,0-86.19,31.73-97.81,74.86-7.29-5.72-16.48-9.14-26.46-9.14-9.22,0-17.76,2.91-24.75,7.87-16.15-34.48-51.17-58.37-91.77-58.37-20.42,0-39.42,6.04-55.33,16.44-12.74-26.82-40.08-45.35-71.75-45.35s-61.65,20.38-73.51,49.32c-9.12-6.08-20.07-9.63-31.85-9.63-9.84,0-19.09,2.47-27.19,6.82-13.65-39.79-51.4-68.4-95.83-68.4-22.31,0-42.94,7.22-59.68,19.46-16.74-12.24-37.38-19.46-59.7-19.46-14.92,0-29.08,3.23-41.83,9.02C123.48,19.52,91.33,0,54.63,0,34.51,0,15.77,5.87,0,15.98v192.6h1000v-112.7c-.35.26-.7.53-1.05.81Z"/>
  </g>
</svg>