<?xml version="1.0" encoding="UTF-8"?>
<svg id="cloud_2" data-name="Layer 2" xmlns="http://www.w3.org/2000/svg" viewBox="0 0 1000 257.71">
  <defs>
    <style>
      .cls-1 {
        fill: #f6f6f6;
      }
    </style>
  </defs>
  <g id="_ÎÓÈ_1" data-name="—ÎÓÈ_1">
    <path class="cls-1" d="m1000,33.3v118.02c-.35-.2,0,106.39,0,106.39H0V11.64C15.57,4.18,33.02,0,51.44,0c42.82,0,80.37,22.59,101.38,56.5,9.71-3.41,20.15-5.28,31.03-5.28,17.14,0,33.2,4.61,47.02,12.66C240.96,27.06,274.66,0,314.69,0c37.1,0,68.76,23.24,81.23,55.96,7.08-3.05,14.88-4.74,23.07-4.74,13.72,0,26.33,4.74,36.3,12.66,12.15-13.85,29.96-22.6,49.82-22.6,31.59,0,58,22.11,64.65,51.69,2.11-.71,4.37-1.11,6.72-1.11,2.47,0,4.83.44,7.03,1.22,3.15-9.67,13.3-16.97,25.7-17.99,13.52-20.37,36.66-33.81,62.95-33.81,34.66,0,63.84,23.35,72.73,55.17,1.87-.4,3.81-.61,5.8-.61,11.66,0,21.62,7.27,25.61,17.52,1.73-18.89,17.62-33.69,36.97-33.69,16.01,0,29.65,10.13,34.87,24.34,7.29-14.44,22.24-24.34,39.51-24.34,2.5,0,4.94.21,7.32.61,4.44-22.17,24.01-38.87,47.48-38.87,13.33,0,25.39,5.38,34.15,14.09,5.9-9.14,13.93-16.78,23.4-22.2Z"/>
  </g>
</svg>