<?xml version="1.0" encoding="UTF-8"?>
<svg id="Layer_1" data-name="Layer 1" xmlns="http://www.w3.org/2000/svg" viewBox="0 0 1000 1000">
  <defs>
    <style>
      .cls-1 {
        fill: #5d5d5d;
      }
    </style>
  </defs>
  <path class="cls-1" d="m412.01,826.52c-11.27-16.31-40.9-23.74-63.66-23.74-7.01,0-13.51.64-19.33,1.89-21.41,4.62-39.67,8.77-55.78,12.43-43.15,9.8-69.19,15.72-90.84,15.72-18.02,0-33.47-4.03-55.1-14.37-22.58-10.8-39.15-21.07-52.46-29.33-20.88-12.95-34.67-21.5-53.55-21.5-6.18,0-12.83.96-20.3,2.9v1.6c7.48-1.97,14.14-2.94,20.3-2.94,18.44,0,32.08,8.46,52.74,21.27,13.35,8.27,29.96,18.57,52.61,29.41,21.86,10.45,37.49,14.52,55.77,14.52,21.82,0,47.93-5.93,91.19-15.76,16.11-3.66,34.36-7.81,55.77-12.42,5.71-1.23,12.1-1.86,19-1.86,22.37,0,51.43,7.22,62.38,23.07,4.83,6.99,5.62,14.93,2.34,23.61-6.53,17.33-37.06,32.63-64,46.14-16.28,8.16-31.66,15.87-39.57,23.03-23.11,20.92-17.57,49.26-8.19,79.82h1.63c-9.31-30.24-14.93-58.27,7.6-78.66,7.75-7.01,23.03-14.68,39.22-22.79,27.19-13.63,58.01-29.08,64.76-46.98,3.46-9.19,2.62-17.61-2.52-25.05Z"/>
  <path class="cls-1" d="m8.04,648.67c3.16-68.54,46.81-118.51,81.88-158.66l2.49-2.85c4.07-4.29,13.46-15.75,12.72-29.61-.45-8.43-4.62-16.06-12.4-22.68-4.66-3.97-8.98-7.67-13.08-11.2-18.14-15.59-32.47-27.91-54.72-43.35-8.13-5.64-16.13-10.98-23.94-16v.79c7.69,4.95,15.56,10.21,23.56,15.76,22.22,15.43,36.54,27.73,54.67,43.31,4.1,3.53,8.42,7.24,13.08,11.2,7.63,6.49,11.73,13.96,12.16,22.21.72,13.59-8.53,24.89-12.55,29.12l-2.5,2.86c-35.14,40.23-78.88,90.29-82.04,159.06-.34,7.33-3.18,11.81-6.39,13.33v.79c3.46-1.43,6.68-5.96,7.05-14.09Z"/>
  <path class="cls-1" d="m396.89,930.59c-2.92-2.93-6.71-4.42-11.28-4.42-13.95,0-31.41,13.81-37.24,20.12-21.46,23.22-23.92,36.22-19.63,53.71h1.16c-4.26-17.27-1.86-30.07,19.29-52.96,5.72-6.19,22.83-19.76,36.42-19.76,4.26,0,7.79,1.38,10.49,4.09,4.63,4.65,6.95,13.29,6.89,25.66-.07,15.03-2.65,28.9-5.93,42.96h1.14c3.26-14.04,5.83-27.91,5.9-42.96.06-12.68-2.37-21.57-7.21-26.45Z"/>
  <path class="cls-1" d="m23.56,649.39c2.91-63.11,44.58-110.81,78.06-149.14l2.5-2.86c7.03-8.05,12.73-15.19,16.93-21.21,5.21-7.46,14.9-21.35-7.99-43.47-24.69-23.86-51.36-45.79-79.28-65.16-11.38-7.9-22.34-15.02-32.79-21.42v.78c10.34,6.34,21.16,13.38,32.41,21.19,27.89,19.36,54.53,41.26,79.2,65.1,22.49,21.73,13,35.31,7.91,42.61-4.19,6-9.87,13.12-16.88,21.15l-2.5,2.87c-33.55,38.4-75.3,86.2-78.22,149.54-1.35,29.38-6.56,46.48-16.4,53.8-1.95,1.45-3.79,2.24-5.51,2.43v.67c1.87-.18,3.81-1,5.91-2.56,10.01-7.45,15.3-24.71,16.67-54.31Z"/>
  <path class="cls-1" d="m294.53,197.97c-4.31-17.06-39.12-21.62-79.43-26.9-9.96-1.3-20.26-2.65-30.26-4.23-44.19-6.98-84.65-29.19-123.77-50.66-19.59-10.75-39.61-21.74-60.09-30.77v1.7c20.21,8.95,39.98,19.81,59.34,30.43,39.24,21.54,79.81,43.81,124.27,50.84,10.02,1.58,20.33,2.93,30.3,4.24,38.09,4.99,74.07,9.7,78.12,25.73,3.16,12.49-13.09,31.44-49.69,57.93-51.34,37.17-94.43,54.48-135.58,54.48-23.39,0-46.58-5.81-68.93-17.28-13.91-7.13-26.15-15.81-37.84-24.57v1.94c11.46,8.56,23.48,17.01,37.13,24.01,22.57,11.58,46,17.45,69.64,17.45h0c41.5,0,84.87-17.41,136.49-54.77,37.69-27.28,53.66-46.21,50.28-59.57Z"/>
  <path class="cls-1" d="m6.74,548.73c5.98-10.53,13.74-20.09,21.24-29.33,10.82-13.33,22.01-27.11,28.03-44.04,10.62-29.86-10.19-43.65-32.23-58.26-2.03-1.35-4.08-2.7-6.13-4.09-3.63-2.46-7.06-4.78-10.44-7.12-1.66-1.15-3.7-2.63-6.23-4.47v.82c2.34,1.7,4.28,3.1,5.85,4.19,3.38,2.35,6.81,4.67,10.47,7.14,2.03,1.38,4.08,2.73,6.11,4.08,21.81,14.46,42.41,28.11,31.97,57.48-5.98,16.83-17.13,30.56-27.92,43.85-7.52,9.26-15.29,18.84-21.3,29.42-1.8,3.17-3.44,7.29-5.18,11.66v1.8c.18-.45.36-.91.54-1.36,1.75-4.42,3.41-8.59,5.22-11.77Z"/>
  <path class="cls-1" d="m703.36,934.18c-.85-7.52-5.58-14.04-14.05-19.38-15.3-9.65-47.32-13.96-72.26-13.96-4.87,0-9.33.16-13.26.49-24.34,2.02-49.7,6.83-77.51,14.7-3.98,1.13-7.94,2.34-11.77,3.61-46.38,15.41-73.19,39.8-86.06,80.36h1.18c12.82-39.99,39.39-64.07,85.23-79.3,3.81-1.27,7.75-2.48,11.72-3.6,27.74-7.85,53.02-12.65,77.3-14.66,3.9-.32,8.33-.49,13.17-.49,24.78,0,56.55,4.26,71.67,13.79,8.17,5.15,12.72,11.39,13.53,18.56,2.05,18.01-18.95,39.15-35.81,56.13-3.4,3.43-6.57,6.62-9.34,9.57h1.53c2.59-2.73,5.49-5.65,8.59-8.78,17.04-17.15,38.23-38.5,36.13-57.04Z"/>
  <path class="cls-1" d="m279.34,877.66c3.59-2.26,7.74-2.56,11.33-2.56,1.69,0,3.39.08,5.18.16,1.79.08,3.64.17,5.48.17,4.14,0,9.52-.39,14.42-3.42,12.62-7.82,16.8-16.9,15.34-22.03-.96-3.39-4.24-5.33-9-5.33-4.24,0-9.62,1.52-15.57,4.39-3.8,1.84-7.22,5.12-10.53,8.3-4,3.84-8.13,7.81-12.87,9.11-1.46.4-2.91.6-4.41.6-3,0-5.69-.77-8.53-1.59-2.81-.81-5.71-1.64-8.91-1.64-1.11,0-2.23.1-3.32.31-5.63,1.05-9.48,4.63-13.21,8.09-3.1,2.88-6.32,5.86-10.53,7.34-4.77,1.67-11.25,2.48-19.79,2.48-11.1,0-23.41-1.4-33.3-2.52-2.85-.32-5.49-.62-7.84-.86-20.54-2.06-41.9-8.51-65.3-19.7-24.77-11.84-42.49-22.83-56.75-31.67-7.78-4.82-15.74-7.27-23.65-7.27-10.06,0-18.99,3.83-26.59,9.72v.83c7.57-5.98,16.52-9.88,26.59-9.88,7.79,0,15.63,2.41,23.31,7.18,14.26,8.84,32,19.84,56.8,31.69,23.47,11.22,44.9,17.68,65.52,19.76,2.35.23,4.99.53,7.83.86,9.91,1.12,22.23,2.52,33.37,2.52,8.62,0,15.17-.82,20.01-2.52,4.35-1.52,7.61-4.55,10.77-7.48,3.83-3.55,7.44-6.91,12.88-7.92,1.06-.2,2.11-.3,3.2-.3,3.1,0,5.96.82,8.73,1.61,2.76.79,5.62,1.61,8.71,1.61,1.56,0,3.06-.2,4.59-.62,4.91-1.35,9.1-5.38,13.16-9.28,3.27-3.14,6.65-6.39,10.36-8.18,5.86-2.83,11.14-4.33,15.28-4.33,4.5,0,7.47,1.72,8.36,4.85,1.39,4.89-2.73,13.64-15.05,21.28-4.75,2.95-10.01,3.33-14.06,3.33-1.82,0-3.67-.08-5.45-.17-1.72-.08-3.51-.16-5.22-.16-3.68,0-7.94.32-11.68,2.66-4.12,2.59-7.24,9.12-10.26,15.43-1.82,3.81-3.54,7.42-5.37,9.91-15.19,20.72-16.12,43.02-12.84,70.13,1.13,9.32,3.02,18.49,5.29,27.43h.69c-2.29-8.97-4.19-18.17-5.32-27.51-3.26-26.96-2.35-49.11,12.72-69.65,1.87-2.55,3.6-6.18,5.44-10.02,2.98-6.23,6.06-12.67,10.01-15.16Z"/>
  <path class="cls-1" d="m348.96,135.39c-3.82,0-9.21,2.44-13.18,14.05-4.46,13.06,4.13,16.1,13.22,19.31,1.59.56,3.24,1.15,4.84,1.79,3.58,1.44,6.6,2.17,8.96,2.17,2.62,0,4.5-.88,5.6-2.62,3.4-5.39-2.05-17.32-4.55-22.2-4.04-7.83-9.61-12.5-14.89-12.5Zm18.5,34.11c-1.77,2.82-6.26,2.81-13.2.01-1.62-.65-3.28-1.24-4.89-1.81-8.93-3.16-16.64-5.88-12.54-17.9,2.97-8.7,7.17-13.3,12.13-13.3s10.05,4.45,13.9,11.9c5.03,9.81,6.74,17.7,4.6,21.1Z"/>
  <path class="cls-1" d="m60.98,499.81c.99-1.18,2-2.37,3.02-3.57,14.29-16.83,29.07-34.23,12.27-55.03-12.99-16.09-32.6-29.36-49.9-41.07-3.58-2.43-6.97-4.72-10.31-7.03-2.24-1.55-5.27-3.77-8.78-6.33-1.93-1.41-4.05-2.96-6.31-4.59v.82c2.11,1.53,4.1,2.98,5.91,4.31,3.51,2.57,6.55,4.79,8.79,6.34,3.34,2.32,6.73,4.61,10.31,7.04,17.26,11.68,36.82,24.92,49.75,40.94,16.45,20.38,1.85,37.56-12.26,54.18-1.02,1.2-2.03,2.39-3.02,3.57-12.41,14.8-28.26,34.63-40.8,56.71-7.61,13.4-13.88,27.49-18.69,41.94v2.19c4.87-15.1,11.33-29.82,19.27-43.8,12.51-22.03,28.34-41.83,40.73-56.61Z"/>
  <path class="cls-1" d="m362.03,996.28c-.97-3.57-2.64-6.08-4.24-8.51-2.46-3.72-4.58-6.93-3.74-13.01,1.15-8.3,11.18-28.77,22.02-28.77.11,0,.21,0,.32,0,5.42.21,8.86,1.58,10.22,4.07,2.5,4.57-2.01,12.29-5.64,18.49-1.96,3.36-3.66,6.26-3.96,8.15-.6,3.75,1.06,5.9,2.67,7.98,1.28,1.65,2.49,3.21,2.43,5.5-.12,4.83-2.25,7.09-4.51,9.49-.1.11-.2.22-.31.33h.91c2.31-2.45,4.46-4.81,4.58-9.8.06-2.53-1.28-4.26-2.57-5.93-1.52-1.96-3.09-4-2.54-7.46.28-1.76,1.95-4.62,3.88-7.91,3.71-6.35,8.33-14.25,5.65-19.15-1.51-2.75-5.03-4.2-10.78-4.42-.12,0-.23,0-.35,0-11.18,0-21.5,20.89-22.68,29.35-.88,6.32,1.41,9.79,3.84,13.46,1.58,2.39,3.21,4.86,4.16,8.32.37,1.36.56,2.5.67,3.55h.66c-.1-1.1-.3-2.3-.69-3.72Z"/>
  <path class="cls-1" d="m48.34,274.9c16.87,8.65,31.21,12.68,45.12,12.68s27.5-4.38,42.49-9.45c8.5-2.88,18.14-6.14,29.07-8.88,5.54-1.39,10.37-1.55,13.53-1.55,2.12,0,4.15.08,6.11.16,1.86.07,3.62.15,5.36.15,9,0,16.15-2.13,24-12.73,5.29-7.15,7.27-12.68,9.02-17.56,2.62-7.29,4.68-13.05,16.19-21.29,2.95-2.11,7.18-3.78,11.27-5.39,6.58-2.59,12.26-4.83,12.5-8.62.19-3.07-3.38-6.5-11.25-10.79-9.42-5.12-22.87-5.81-34.78-5.81-5.31,0-10.89.16-16.28.32-5.42.16-11.03.32-16.39.32-11.96,0-20.34-.83-27.17-2.69-38.63-10.5-74.86-30.39-106.82-47.93-16.78-9.21-33.05-18.13-49.3-25.8v1.23c16.07,7.61,32.17,16.43,48.77,25.55,32.01,17.57,68.3,37.49,107.06,48.03,6.94,1.89,15.41,2.73,27.47,2.73,5.38,0,10.99-.16,16.42-.32,5.39-.16,10.96-.32,16.25-.32,11.77,0,25.05.67,34.25,5.67,7.24,3.94,10.83,7.22,10.67,9.74-.19,3.08-5.83,5.3-11.8,7.66-4.15,1.63-8.44,3.32-11.51,5.52-11.79,8.44-14.02,14.64-16.59,21.82-1.72,4.8-3.67,10.25-8.87,17.27-7.56,10.23-14.45,12.28-23.1,12.29-1.72,0-3.46-.07-5.31-.15-1.98-.08-4.02-.16-6.16-.16-3.21,0-8.13.17-13.8,1.59-10.97,2.76-20.63,6.02-29.15,8.91-14.9,5.04-27.76,9.39-42.14,9.39s-27.9-3.99-44.61-12.56c-15.28-7.84-29.02-18.26-42.31-28.35-1.84-1.4-3.69-2.8-5.55-4.2v1.39c1.63,1.23,3.26,2.47,4.88,3.7,13.33,10.11,27.11,20.57,42.47,28.45Z"/>
  <path class="cls-1" d="m588.59,969.06c-1.08-.46-2.74-.7-4.93-.7-12.88,0-40.17,7.69-40.44,7.76-3.05.87-6.09,1.8-9.03,2.78-15.1,5.01-26.26,11.73-34.4,21.09h.88c8.03-9.05,19-15.56,33.73-20.46,2.93-.98,5.96-1.91,9.01-2.77.27-.08,27.47-7.74,40.26-7.74,2.11,0,3.68.22,4.67.64,4.93,2.12,3.12,7.74-.85,20.07-.95,2.95-2.06,6.42-3.21,10.26h.69c1.13-3.76,2.21-7.16,3.15-10.05,3.97-12.34,5.97-18.53.48-20.88Z"/>
  <path class="cls-1" d="m558.46,989.07c-3.08,0-6.81.61-11.07,1.82-2.84.81-5.66,1.67-8.38,2.58-5.71,1.9-10.66,4.07-14.98,6.54h2.32c3.83-2.03,8.13-3.86,13.01-5.48,2.7-.9,5.5-1.76,8.33-2.56,4.16-1.18,7.79-1.78,10.77-1.78,5.54,0,8.89,2.03,9.98,6.03.31,1.13.37,2.43.32,3.8h1.11c.05-1.47-.03-2.86-.36-4.08-.85-3.12-3.45-6.85-11.05-6.85Z"/>
  <path class="cls-1" d="m628.2,952.34c-1.93-3.89-8.59-5.28-20.53-4.28-21.31,1.77-43.76,6.05-68.63,13.09-3.32.94-6.6,1.95-9.75,2.99-22.57,7.5-38.33,19.01-48.57,35.86h.78c10.17-16.52,25.75-27.83,47.99-35.22,3.14-1.04,6.41-2.05,9.72-2.99,24.83-7.03,47.24-11.31,68.51-13.07,2.44-.2,4.69-.3,6.68-.3,7.47,0,11.79,1.38,13.2,4.22,2.48,4.99-4.51,14.24-11.26,23.19-1.2,1.58-2.4,3.18-3.56,4.75-4.69,6.38-8.85,12.89-12.6,19.42h.77c3.69-6.4,7.78-12.77,12.37-19.02,1.16-1.58,2.36-3.17,3.55-4.75,7.19-9.53,13.99-18.53,11.32-23.89Z"/>
  <path class="cls-1" d="m650.6,963.77c10.24-9.63,14.34-17.24,12.21-22.64-2.54-6.41-13.83-9.66-33.56-9.66-6.58,0-14.06.36-22.87,1.09-22.31,1.85-45.73,6.31-71.58,13.62-3.5.99-7.01,2.07-10.42,3.2-29.61,9.84-49.6,26.23-61.36,50.62h.75c11.71-24.06,31.53-40.25,60.82-49.98,3.4-1.13,6.9-2.2,10.39-3.19,25.81-7.31,49.18-11.76,71.45-13.6,8.79-.73,16.26-1.08,22.82-1.08,19.43,0,30.51,3.11,32.94,9.24,2.02,5.12-2.03,12.49-12.04,21.91-2.01,1.89-3.96,3.73-5.59,5.37-7.66,7.72-14.28,14.38-19.23,21.12-2.46,3.35-4.78,6.77-7.03,10.23h.79c2.17-3.32,4.42-6.61,6.78-9.83,4.92-6.7,11.52-13.34,19.17-21.05,1.62-1.63,3.56-3.47,5.57-5.35Z"/>
  <path class="cls-1" d="m58.56,254.92c16.4,8.41,32.49,12.5,49.18,12.51,9.34,0,29.52-3.82,47.11-10.2,15.41-5.59,33.78-14.89,33.83-27.38.05-14.71-28.34-22.89-45.3-27.77-3.69-1.06-6.87-1.98-9-2.75-30.37-11.01-60.52-24.92-94.87-43.78-13.11-7.2-25.91-14.22-38.53-20.53v.75c12.51,6.27,25.2,13.23,38.2,20.37,34.38,18.87,64.56,32.8,94.96,43.82,2.15.78,5.34,1.7,9.04,2.76,16.78,4.83,44.87,12.92,44.82,27.13-.07,21.6-60.9,36.92-80.28,36.92-16.57,0-32.56-4.07-48.87-12.43-13.56-6.96-26.52-16.79-39.05-26.3-6.07-4.6-12.31-9.33-18.83-13.94v.82c6.38,4.51,12.49,9.14,18.43,13.65,12.55,9.53,25.54,19.38,39.15,26.36Z"/>
  <path class="cls-1" d="m65.65,241.08c14.15,7.26,27.91,10.79,42.09,10.8,12.31,0,28.39-3.66,34.58-11.68,2.69-3.49,3.45-7.58,2.26-12.16-2.81-10.77-25.35-18.4-41.82-23.96-5.32-1.8-9.92-3.35-12.74-4.66-19.02-8.83-37.84-19.17-56.05-29.16l-2.03-1.11c-10.52-5.78-20.83-11.43-30.97-16.67v.75c10.03,5.19,20.23,10.79,30.65,16.5l2.03,1.12c18.21,10,37.04,20.34,56.09,29.19,2.85,1.32,7.46,2.88,12.8,4.69,15.4,5.2,38.67,13.07,41.39,23.5,1.14,4.37.42,8.27-2.14,11.58-6.06,7.85-21.9,11.42-34.09,11.42-14.04,0-27.7-3.52-41.75-10.72-12.35-6.33-24.75-15.75-36.76-24.86-8.68-6.59-18-13.65-28.21-20.32v.8c10.06,6.6,19.25,13.56,27.81,20.06,12.02,9.12,24.45,18.55,36.85,24.91Z"/>
  <path class="cls-1" d="m394.99,13.31c1.11-4.48,2.2-8.9,3.22-13.31h-1.14c-1.01,4.32-2.07,8.65-3.16,13.04-2.04,8.24-4.15,16.76-5.85,25.46-5.69,29-10.59,67.02,2.09,103.92,5.15,15,17.99,27.25,29.32,38.05,10.08,9.62,18.79,17.93,18,24.91-.36,3.21-2.7,6.06-7.16,8.72-2.06,1.23-5.58,1.85-10.46,1.85-17.04,0-47.11-7.53-69.35-14.99-24.19-8.12-53.99-21.05-58.62-36.55-1.47-4.94-.26-9.93,3.59-14.83,4.95-6.28,10.26-11.81,15.39-17.15,10.1-10.51,19.65-20.45,25.97-35.19,9.01-21.03,10.1-42.95,3.25-65.17-1.66-5.38-3.33-10.34-4.81-14.72-2.18-6.47-4.08-12.12-5.37-17.35h-1.16c1.31,5.34,3.25,11.1,5.48,17.71,1.47,4.37,3.14,9.32,4.8,14.69,6.77,21.96,5.69,43.63-3.21,64.4-6.24,14.56-15.71,24.42-25.75,34.85-5.15,5.36-10.48,10.91-15.46,17.23-4.1,5.2-5.37,10.53-3.79,15.84,4.76,15.96,34.89,29.09,59.33,37.29,22.32,7.49,52.53,15.05,69.7,15.05,5.08,0,8.8-.68,11.03-2.01,4.78-2.85,7.3-5.98,7.7-9.55.85-7.53-8.04-16.01-18.34-25.84-11.24-10.72-23.97-22.87-29.04-37.61-12.6-36.65-7.71-74.48-2.05-103.34,1.7-8.67,3.81-17.18,5.84-25.41Z"/>
  <path class="cls-1" d="m211.07,533.06c-1.11,1.84-2.16,3.58-3.06,4.86-11.23,15.84-24.53,29.89-39.49,45.31-2.01,2.07-4.08,4.17-6.18,6.29-12.35,12.49-25.13,25.41-32.77,40.68-2.96,5.92-3.88,10.54-2.64,13.35.56,1.28,1.54,2.13,2.91,2.52.56.16,1.2.25,1.88.25,2.74,0,6.37-1.32,10.5-3.83,8.21-4.98,16.02-11.12,23.56-17.07,6.18-4.87,12.57-9.9,19.16-14.27,26.58-17.63,44.14-29.28,52.34-62.15,1.7-6.81,2.7-22.34-2.56-29.08-1.81-2.32-4.19-3.41-7.13-3.28-6.84.35-12.44,9.64-16.53,16.43Zm17.05-15.77c2.47,0,4.52,1.02,6.09,3.04,5.12,6.56,4.11,21.8,2.44,28.51-8.15,32.62-25.62,44.21-52.07,61.76-6.61,4.38-13.01,9.43-19.2,14.3-7.53,5.93-15.32,12.06-23.49,17.02-4.98,3.02-9.23,4.28-11.86,3.51-1.17-.34-2-1.06-2.48-2.15-1.13-2.59-.2-7.13,2.63-12.79,7.59-15.17,20.33-28.05,32.64-40.51,2.1-2.12,4.17-4.21,6.18-6.29,14.98-15.44,28.29-29.51,39.55-45.39.92-1.3,1.98-3.05,3.09-4.9,4.01-6.66,9.51-15.77,15.99-16.11.16,0,.32-.01.48-.01Z"/>
  <path class="cls-1" d="m72.62,227.42c4.43,2.27,16.87,6.33,25.9,6.33,3.22,0,5.68-.53,7.3-1.59,3.52-2.29,5.07-4.43,4.75-6.55-.72-4.68-10.89-7.51-19.06-9.78-3.36-.94-6.27-1.74-7.92-2.51-19.49-9.05-38.54-19.51-56.96-29.63l-2.04-1.12c-7.99-4.39-15.85-8.7-23.59-12.8v1.26c7.57,4.02,15.26,8.23,23.07,12.52l2.03,1.11c18.44,10.13,37.51,20.6,57.03,29.66,1.73.81,4.68,1.62,8.09,2.57,7.45,2.07,17.65,4.91,18.26,8.88.25,1.62-1.18,3.46-4.25,5.45-1.44.94-3.69,1.41-6.7,1.41-8.73,0-21.17-4.04-25.39-6.21-11.1-5.7-22.94-14.67-34.41-23.38-10.94-8.3-23.38-17.74-37.74-26.32v1.31c14.08,8.47,26.32,17.75,37.09,25.93,11.48,8.71,23.35,17.72,34.54,23.46Z"/>
  <path class="cls-1" d="m39.3,650.11c2.65-57.6,42.31-103,74.18-139.47l2.51-2.88c37.89-43.42,36.36-58.58,18.58-76.14-19.49-19.25-50.22-48.19-91.81-77.05-14.19-9.85-28.23-18.85-41.78-26.87v1.29c13.34,7.92,27.16,16.79,41.14,26.49,41.52,28.81,72.2,57.7,91.66,76.93,17.27,17.05,18.67,31.87-18.63,74.62l-2.51,2.87c-31.98,36.61-71.78,82.16-74.45,140.15-2.51,54.43-22.99,70.41-37.21,74.9v1.16c14.55-4.44,35.76-20.5,38.32-76.01Z"/>
  <path class="cls-1" d="m682.66,932.85c-6.52-13.92-32.88-16.84-53.85-16.84-7.37,0-15.35.35-23.71,1.05-23.31,1.93-47.69,6.56-74.52,14.16-3.75,1.07-7.48,2.21-11.09,3.41-23.09,7.67-40.85,18.77-54.29,33.92-8.04,9.07-14.39,19.5-19.23,31.46h.7c12.85-31.73,36.53-52.62,73.03-64.75,3.59-1.19,7.31-2.34,11.06-3.4,26.79-7.58,51.12-12.2,74.4-14.13,8.35-.69,16.31-1.04,23.66-1.04,20.77,0,46.87,2.85,53.25,16.45,6.98,14.9-10,30.89-21.24,41.46-1.91,1.8-3.72,3.5-5.23,5.03-7.22,7.27-13.46,13.55-17.74,19.37-.25.34-.48.67-.73,1.01h.82c.15-.21.29-.41.44-.62,4.24-5.77,10.47-12.04,17.67-19.29,1.51-1.52,3.31-3.21,5.22-5.01,11.38-10.71,28.58-26.89,21.39-42.23Z"/>
  <path class="cls-1" d="m225.31,896.96c-9.88-2.54-20.49-2.7-30.76-2.86-5.92-.09-12.05-.19-17.9-.74-27.95-2.66-51.9-9.13-75.38-20.35-25.54-12.21-43.67-23.45-58.24-32.48-5.29-3.27-10.49-4.94-15.47-4.94-9.29,0-18.89,6.08-26.59,16.25v1.11c7.65-10.43,17.29-16.69,26.59-16.69,4.85,0,9.94,1.63,15.11,4.84,14.58,9.04,32.73,20.29,58.3,32.52,23.54,11.26,47.57,17.74,75.6,20.41,5.88.56,12.02.66,17.95.75,10.23.16,20.8.32,30.6,2.84,15.26,3.92,14.71,15.08,12.55,28.17-2.58,15.61-4.73,31.08-2.6,48.66,1.06,8.73,2.73,17.26,4.73,25.57h.68c-2.01-8.34-3.7-16.89-4.76-25.64-2.12-17.49.02-32.91,2.6-48.47,2.14-12.93,2.75-24.86-13.04-28.92Z"/>
  <path class="cls-1" d="m284.34,19.22c15.22,47.43,21.4,73.2-16.36,95.05-6.2,3.59-13.23,6.23-20.91,7.87-6.51,1.39-13.67,2.09-21.27,2.09-70.19,0-166.6-58.71-218.4-90.25l-1.77-1.08c-1.59-.97-3.13-1.9-4.64-2.82v1.3c1.33.81,2.68,1.63,4.07,2.47l1.77,1.08c51.89,31.6,148.47,90.4,218.98,90.41,7.69,0,14.92-.71,21.51-2.12,7.79-1.66,14.94-4.35,21.23-7.99,38.5-22.28,32.26-48.36,16.86-96.35-1.95-6.08-3.97-12.41-5.83-18.88h-1.16c1.89,6.59,3.95,13.04,5.93,19.22Z"/>
  <path class="cls-1" d="m195.73,12.45c.45,1.67,1.07,3.72,1.77,6.04,2,6.57,1.65,11-1.06,13.17-1.36,1.09-3.34,1.64-5.89,1.64-10.83,0-28.87-9.68-34.8-12.86-2.9-1.55-5.08-2.72-6.79-3.57l-9.11-4.5c-8.35-4.09-16.49-8.23-24.38-12.38h-1.42c8.24,4.35,16.76,8.69,25.51,12.98l9.1,4.5c1.7.85,3.88,2.01,6.77,3.57,5.96,3.2,24.11,12.94,35.11,12.94,2.71,0,4.83-.6,6.31-1.78,2.94-2.36,3.37-7.03,1.28-13.89-.7-2.31-1.32-4.36-1.77-6.03-1.07-4.02-2.15-8.09-3.15-12.26h-.68c1.02,4.24,2.11,8.38,3.2,12.45Z"/>
  <path class="cls-1" d="m263.42,25.95c6.16,19.2,12.05,43.29,2.84,59.2-4.56,7.88-12.56,13.09-23.76,15.48-5.01,1.07-10.63,1.61-16.7,1.61-64.04,0-157.02-56.63-206.98-87.05l-9.22-5.6C6.78,7.87,3.9,6.27.99,4.76v.76c2.8,1.45,5.56,2.99,8.27,4.63l9.22,5.6c50.01,30.45,143.1,87.14,207.33,87.15,6.11,0,11.78-.55,16.84-1.63,11.4-2.43,19.54-7.74,24.2-15.79,9.34-16.13,3.42-40.4-2.78-59.74-2.66-8.29-5.29-16.9-7.55-25.74h-.69c2.27,8.91,4.93,17.59,7.61,25.95Z"/>
  <path class="cls-1" d="m210.75,8.45c.4,1.51.97,3.36,1.62,5.51,3.22,10.57,8.09,26.56,3.49,33.93-1.88,3.01-4.79,4.97-8.64,5.84-1.56.35-3.29.53-5.17.53-16.22,0-40.56-13.07-53.64-20.09-2.54-1.36-4.73-2.54-6.38-3.36l-1.14-.57c-1.29-.64-2.49-1.24-3.6-1.78l-4.28-2.11C115.33,17.68,98.54,8.81,83.08,0h-1.34c15.75,9.01,32.9,18.08,50.97,26.94l4.29,2.11c1.1.54,2.31,1.14,3.59,1.78l1.14.57c1.64.82,3.82,1.99,6.36,3.35,13.13,7.05,37.57,20.17,53.96,20.17,1.93,0,3.71-.18,5.32-.54,4.04-.9,7.08-2.97,9.06-6.13,4.77-7.63-.16-23.78-3.41-34.48-.65-2.14-1.21-3.98-1.61-5.49-.73-2.73-1.46-5.49-2.16-8.28h-.69c.72,2.85,1.47,5.67,2.21,8.45Z"/>
  <path class="cls-1" d="m225.77,4.45c3.15,11.85,6.41,24.11,6.76,36.76.45,16.36-5.92,25.72-18.92,27.83-1.93.31-4.04.47-6.27.47-22.57,0-54.89-16.13-72.25-24.8-1.69-.85-3.25-1.62-4.65-2.31l-4.28-2.1C99.15,27.07,74.12,13.33,52.63,0h-1.26c21.71,13.52,47.09,27.47,74.5,40.9l4.28,2.1c1.4.69,2.96,1.47,4.65,2.31,17.41,8.69,49.81,24.87,72.55,24.87,2.26,0,4.41-.16,6.38-.48,13.38-2.17,19.93-11.77,19.48-28.51-.35-12.73-3.62-25.03-6.78-36.92-.38-1.42-.75-2.85-1.13-4.28h-.69c.39,1.49.78,2.97,1.18,4.45Z"/>
  <path class="cls-1" d="m248.62,30.7c.33,1.02.66,2.04,1,3.06,3.55,10.81,7.22,21.99,1.29,32.77-4.94,9-14.96,16.3-25.52,18.6-1.08.23-2.17.42-3.24.54-2.64.31-5.41.46-8.25.46-29.81,0-64.78-17.2-90.31-29.76l-4.27-2.1C86.52,38.2,54.84,18.91,26.89,1.89c-1.19-.72-2.21-1.34-3.11-1.89h-1.28c2.1,1.28,4.05,2.46,4.05,2.46,27.96,17.02,59.65,36.32,92.48,52.41l4.27,2.1c25.59,12.59,60.64,29.83,90.6,29.83,2.86,0,5.66-.16,8.32-.47,1.09-.13,2.2-.31,3.3-.55,10.74-2.33,20.93-9.76,25.97-18.93,6.07-11.04,2.35-22.36-1.24-33.3-.34-1.02-.67-2.04-1-3.06-3.13-9.74-6.2-19.94-8.75-30.5h-.69c2.56,10.63,5.65,20.9,8.8,30.7Z"/>
  <path class="cls-1" d="m224.45,496.08c-9.74,2.41-18.25,15.9-25.1,26.75-2.39,3.79-4.66,7.38-6.64,9.94-11.02,14.24-23.45,27.06-35.48,39.46-3.13,3.23-7.07,6.88-11.24,10.75-12.39,11.49-27.8,25.79-32.49,38.88-3.94,11.01-1.62,21.5.63,31.65,1.84,8.33,3.75,16.95,2.24,25.89-.94,5.55-4.29,11.02-7.85,16.8-4.26,6.93-8.66,14.09-8.93,21.79-.09,2.62.31,5.21,1.2,7.69,2.94,8.23,6,12.07,9.64,12.07s7.52-3.75,13.33-12.94c5.54-8.77,7.72-18.93,9.84-28.77,2.12-9.87,4.31-20.07,9.9-28.9,10.65-16.81,29.43-29.19,46.01-40.11,1.4-.92,2.78-1.83,4.15-2.74,27.51-18.25,49.24-32.66,58.93-71.48,2.56-10.27,1.89-36.43-8.55-49.82-5.07-6.5-11.73-8.87-19.58-6.92Zm18.71,7.61c9.36,12,11.22,37.36,8.34,48.87-9.59,38.4-31.16,52.7-58.48,70.83-1.36.9-2.75,1.81-4.14,2.73-16.67,10.99-35.56,23.44-46.33,40.45-5.7,8.99-7.91,19.29-10.05,29.26-2.09,9.73-4.25,19.8-9.69,28.4-3.88,6.14-8.39,12.42-12.39,12.42-3.06,0-5.87-3.71-8.59-11.33-.85-2.39-1.22-4.77-1.14-7.28.26-7.41,4.58-14.44,8.76-21.25,3.62-5.88,7.03-11.44,8-17.2,1.54-9.16-.39-17.88-2.25-26.32-2.31-10.46-4.5-20.33-.67-31.04,4.59-12.83,19.9-27.03,32.2-38.44,4.18-3.88,8.13-7.54,11.28-10.79,12.05-12.42,24.51-25.26,35.57-39.55,2.02-2.61,4.29-6.21,6.7-10.03,6.74-10.67,15.12-23.96,24.43-26.26,1.68-.42,3.33-.63,4.89-.63,5.29,0,9.85,2.41,13.56,7.16Z"/>
  <path class="cls-1" d="m234.67,447.83c-5.29-7.62-9.89-8.61-14.75-9.65-3.36-.72-6.84-1.46-10.8-4.46l-.33-.37c-11.33-12.68-49.3-54.06-62.15-54.06-1.52,0-2.7.54-3.51,1.6-1.72,2.24-1.63,6.76.27,13.8,1.13,4.19,11.88,9.96,23.26,16.08,9.48,5.1,19.29,10.37,22.61,14.32,2.98,3.54,6.9,8.46,6.55,10.16-.1.46-.6.73-1.47,1.17-1.98.99-4.98,2.48-3.38,9.49,1.1,4.85,4.1,9.66,7,14.32,2.7,4.34,5.25,8.44,6.29,12.42,2.85,10.92-15.04,30.99-26.88,44.27-3.91,4.38-7.28,8.16-9.42,11.01-8.62,11.45-19.37,22.06-29.77,32.31-20.22,19.95-41.12,40.57-48.48,69.05-10.99,42.55-13.18,80.13-6.51,111.69,3.55,16.84,15.81,40.32,27.69,40.32,7.4,0,12.79-8.9,16.02-26.45,12.43-67.6,46.34-90.1,79.14-111.85,29.06-19.27,56.5-37.48,68.31-84.75,4.45-17.84-2.4-45.26-11.3-60.44-3.97-6.78-8.97-10.58-13.81-14.27-4.25-3.24-8.27-6.29-11.37-11.17-2.2-3.45-1.81-7.48-1.39-11.74.43-4.4.87-8.96-1.81-12.81Zm1.89,25.39c3.25,5.11,7.37,8.25,11.74,11.57,4.72,3.59,9.6,7.31,13.41,13.82,8.74,14.92,15.48,41.82,11.13,59.28-11.66,46.69-38.86,64.73-67.66,83.83-33.07,21.93-67.26,44.61-79.81,112.86-3.03,16.47-8.04,25.18-14.49,25.18-10.09,0-22.35-21.01-26.17-39.09-6.62-31.32-4.43-68.66,6.5-110.98,7.25-28.06,28-48.54,48.06-68.33,10.43-10.3,21.22-20.94,29.92-32.48,2.11-2.8,5.46-6.56,9.34-10.92,12.78-14.34,30.28-33.97,27.23-45.7-1.1-4.21-3.71-8.41-6.47-12.85-2.83-4.55-5.76-9.25-6.8-13.85-1.33-5.82.74-6.85,2.56-7.75,1.01-.5,2.05-1.02,2.3-2.24.34-1.63-.7-4.12-6.88-11.48-3.51-4.18-13.45-9.52-23.07-14.69-10.1-5.43-21.54-11.57-22.5-15.12-2.16-8.04-1.48-11.21-.53-12.45.51-.66,1.25-.99,2.27-.99,9.7,0,37.87,27.66,61,53.54.29.32.45.48.46.49,4.33,3.29,8.14,4.11,11.51,4.82,4.76,1.02,8.86,1.89,13.8,9.01,2.35,3.39,1.95,7.46,1.54,11.78-.42,4.34-.86,8.82,1.63,12.73Z"/>
  <path class="cls-1" d="m.99,303.57c74.86,42.41,155.54,109.87,170.23,143.41,8.82,20.14-12.56,44.21-39.63,74.67-30.76,34.62-69.05,77.71-71.43,129.42-2.9,63.04-34.12,88.93-59.16,96.76v1.63c25.62-7.81,57.76-34.04,60.72-98.31,2.36-51.17,40.44-94.02,71.04-128.46,27.44-30.88,49.12-55.28,39.9-76.33-14.8-33.79-96.25-101.84-171.65-144.44v1.66Z"/>
  <path class="cls-1" d="m378.1.12s.08-.08.12-.12h-.91c-1.39,1.48-2.8,3.05-3.77,5.32-2.76,6.48-1.98,13.24-1.22,19.78.42,3.64.86,7.41.68,11.1-.28,5.79-1.46,11.8-2.6,17.62-.94,4.8-1.91,9.76-2.38,14.6-2.84,29.39-.27,55.97,7.64,79,1.64,4.78,8.08,12.13,14.89,19.91,8.71,9.95,17.72,20.24,18.07,26.49.08,1.39-.28,2.49-1.09,3.36-2.35,2.5-8.67,2.96-18.75,1.36-7.34-1.17-14.39-4.23-21.2-7.2-3.98-1.73-8.1-3.52-12.21-4.9-1.16-.39-2.36-.79-3.6-1.2-14.76-4.88-34.98-11.56-37.87-23.25-1.38-5.58,1.33-11.96,8.05-18.95,10.6-11.03,21.56-22.43,28.97-39.74,7.11-16.59,15.29-48.88,12.16-66.36-.64-3.58-2.13-6-3.58-8.34-1.93-3.13-3.76-6.08-2.92-11.44.62-3.95,2.15-6.26,3.5-8.3,1.62-2.45,3.04-4.66,2.65-8.85h-.66c.4,3.98-.92,6.05-2.54,8.48-1.39,2.1-2.97,4.47-3.61,8.57-.87,5.6,1.02,8.66,3.02,11.89,1.41,2.28,2.87,4.65,3.49,8.1,3.11,17.35-5.04,49.47-12.11,65.98-7.37,17.2-18.28,28.55-28.84,39.54-6.89,7.17-9.66,13.76-8.22,19.57,2.99,12.06,23.4,18.8,38.31,23.73,1.24.41,2.44.81,3.6,1.19,4.08,1.37,8.19,3.16,12.15,4.88,6.86,2.98,13.95,6.07,21.37,7.24,3.97.63,7.39.95,10.19.95,4.57,0,7.57-.82,9.16-2.51.94-.99,1.36-2.29,1.27-3.85-.37-6.48-9.46-16.85-18.24-26.89-6.77-7.73-13.16-15.04-14.76-19.69-7.88-22.94-10.44-49.42-7.61-78.72.46-4.8,1.43-9.75,2.37-14.53,1.14-5.84,2.33-11.87,2.61-17.71.18-3.74-.26-7.54-.69-11.2-.78-6.75-1.52-13.12,1.17-19.44.99-2.33,2.49-3.92,3.94-5.46Z"/>
  <path class="cls-1" d="m305.27,12.5c14.05,43.79,28.58,89.08-26.29,120.82-8.2,4.75-17.4,8.22-27.33,10.34-8.01,1.71-16.71,2.57-25.85,2.57C151.62,146.23,58.84,91.01.99,55.82v1.82c58.05,35.3,150.55,90.14,224.81,90.14,9.25,0,18.06-.88,26.18-2.61,10.1-2.15,19.45-5.69,27.79-10.52,55.95-32.37,41.23-78.26,26.99-122.64-1.3-4.04-2.58-8.05-3.8-12.02h-1.63c1.27,4.13,2.6,8.3,3.95,12.5Z"/>
  <path class="cls-1" d="m213.82,918.02c-8.08-7.48-20.16-8.11-30.82-8.67-2.74-.14-5.32-.28-7.82-.52-29.82-2.84-55.43-9.77-80.6-21.8-21.65-10.35-38.42-19.79-52.78-29.71-3.93-2.72-7.96-4.1-11.96-4.1-9.1,0-17.66,7.15-22.91,19.12-1.98,4.52-3.94,8.96-5.94,13.36v1.6c2.22-4.83,4.37-9.71,6.55-14.69,5.14-11.72,13.47-18.72,22.3-18.72,3.86,0,7.76,1.34,11.58,3.98,14.39,9.94,31.19,19.4,52.88,29.77,25.24,12.07,50.92,19.01,80.82,21.86,2.51.24,5.11.38,7.85.52,10.55.55,22.5,1.18,30.4,8.5,9.16,8.49,7.87,24.59,6.73,38.8-.56,6.99-1.09,13.59-.44,18.99.97,8.02,2.9,15.95,4.93,23.7h.69c-2.04-7.77-3.98-15.74-4.95-23.77-.64-5.33-.12-11.9.44-18.86,1.15-14.36,2.46-30.64-6.94-39.34Z"/>
  <path class="cls-1" d="m6.33,956.59c-1.95-.78-3.74-1.5-5.34-2.33v.75c1.57.79,3.28,1.48,5.09,2.21.93.37,1.9.76,2.88,1.18,14.28,6.03,25.19,11.71,34.33,17.87,11.46,7.73,24.4,15.71,38.45,23.74h1.34c-14.42-8.22-27.69-16.39-39.42-24.29-9.18-6.19-20.12-11.89-34.44-17.94-.99-.42-1.96-.81-2.89-1.18Z"/>
  <path class="cls-1" d="m34.61,989.16c5.29,3.57,10.9,7.19,16.76,10.84h1.26c-6.18-3.84-12.09-7.64-17.65-11.39-7.83-5.28-21.02-12.09-34-17.42v.72c12.84,5.29,25.87,12.03,33.62,17.26Z"/>
  <path class="cls-1" d="m21.73,462.63c-1.09-7.16-6.03-13.57-15.1-19.58-1.86-1.23-3.73-2.48-5.65-3.77v.8c1.78,1.19,3.54,2.37,5.28,3.52,8.9,5.9,13.74,12.15,14.81,19.12,1.76,11.52-6.99,23.41-17.72,36.64-.73.89-1.53,1.99-2.36,3.17v1.16c1.03-1.49,2.01-2.84,2.88-3.91,10.84-13.35,19.67-25.37,17.87-37.16Z"/>
  <path class="cls-1" d="m17.66,996.3v-.02c-5.36-3.25-10.94-6.13-16.67-8.72v.73c5.61,2.55,11.08,5.38,16.34,8.56.05.03,2.72,1.65,5.18,3.15h1.28c-4.57-2.78-5.78-3.51-6.13-3.7Z"/>
  <path class="cls-1" d="m152.37,2.2c4.16,2.11,9.87,5,14.9,5,2.11,0,3.94-.52,5.44-1.55.13-.09.25-.18.37-.27,1.65-1.32,2.7-3.21,3.36-5.38h-1.16c-.61,1.83-1.52,3.42-2.89,4.52-.1.08-.2.15-.3.22-1.31.9-2.93,1.35-4.81,1.35-4.77,0-10.34-2.82-14.4-4.88-.61-.31-1.19-.6-1.72-.86,0,0-.29-.14-.72-.35h-2.52l2.74,1.35c.53.26,1.1.55,1.71.86Z"/>
  <path class="cls-1" d="m162.81,980c.81-2.87.55-5.37-.78-7.43-3.26-5.04-12.05-6.32-18.47-7.26-1.07-.16-2.07-.3-2.94-.45-.29-.05-.78-.15-1.43-.28-3.36-.68-10.35-2.08-15.58-2.08-3.13,0-5.13.5-6.11,1.54-.5.52-.73,1.16-.69,1.9.31,5.74,9.11,9.28,14.37,11.4.82.33,1.56.63,2.17.89,1.42.62,3.02,1.42,4.72,2.26,5.42,2.7,11.57,5.76,16.83,5.76.68,0,1.33-.05,1.95-.16,2.95-.5,4.96-2.55,5.97-6.1Zm-6.18,4.83c-.54.09-1.13.14-1.73.14-4.96,0-10.96-2.99-16.26-5.63-1.71-.85-3.33-1.66-4.78-2.29-.62-.27-1.37-.57-2.2-.91-4.97-2-13.3-5.35-13.56-10.28-.02-.38.09-.69.34-.95.49-.52,1.79-1.14,5.18-1.14,5.11,0,12.01,1.39,15.33,2.06.66.13,1.16.23,1.46.28.88.15,1.89.3,2.97.46,5.83.85,14.64,2.14,17.59,6.69,1.14,1.76,1.34,3.84.62,6.38-.87,3.07-2.49,4.77-4.95,5.18Z"/>
  <path class="cls-1" d="m206.07,950.29c1.06-6.53,2.15-13.29-2.16-18.42-5.14-6.13-13.54-6.56-20.95-6.94l-.77-.04c-2.63-.14-5.62-.3-8.49-.57-31.69-3.02-58.96-10.41-85.82-23.25-8.46-4.04-16.77-8.65-24.81-13.11-4.41-2.45-8.98-4.98-13.52-7.39l-.31-.16c-5.33-2.83-10.83-5.76-16.5-5.76-2.99,0-5.68.81-8.25,2.48-9.04,5.89-13.37,17.31-17.57,28.36-1.9,5.02-3.74,9.76-5.94,13.91v1.39c2.48-4.43,4.48-9.59,6.56-15.07,4.16-10.95,8.45-22.27,17.31-28.04,2.45-1.6,5.03-2.37,7.88-2.37,5.5,0,10.93,2.89,16.19,5.68l.31.17c4.54,2.41,9.1,4.94,13.51,7.39,8.05,4.46,16.37,9.08,24.85,13.13,26.94,12.88,54.28,20.29,86.05,23.31,2.88.27,5.87.43,8.51.57l.77.04c7.27.37,15.52.8,20.48,6.71,4.11,4.9,3.04,11.5,2.01,17.89-.33,2.05-.65,3.99-.8,5.91-.6,7.44-1.21,15.13-.37,22.08.92,7.57,2.53,14.8,4.31,21.83h.69c-1.79-7.05-3.41-14.31-4.33-21.9-.83-6.88-.22-14.54.37-21.97.15-1.86.46-3.79.79-5.83Z"/>
  <path class="cls-1" d="m41.37,470.15c5.77-16.23-.03-22.75-26.16-40.07-2.07-1.37-4.16-2.76-6.29-4.2-2.74-1.85-5.35-3.63-7.92-5.4v.81c2.46,1.69,4.95,3.38,7.57,5.16,2.11,1.43,4.2,2.81,6.27,4.19,25.78,17.09,31.52,23.5,25.91,39.29-5.09,14.3-14.92,26.42-25.34,39.25-4.84,5.97-9.79,12.06-14.42,18.58v1.15c4.78-6.79,9.91-13.12,14.94-19.31,10.45-12.87,20.32-25.03,25.44-39.45Z"/>
  <path class="cls-1" d="m176.56,941.55c-7.01-3.06-14.67-3.8-22.07-4.51-4.22-.4-8.58-.82-12.74-1.67-20.91-4.24-41.29-11.06-60.56-20.28-8.88-4.24-17.39-8.96-25.64-13.54-1.17-.65-2.53-1.52-3.97-2.44-4.76-3.04-10.68-6.82-15.98-6.82-1.98,0-3.75.54-5.28,1.61-4.05,2.83-5.95,8.54-7.64,13.58-.42,1.25-.82,2.44-1.23,3.52-.72,1.9-2.16,4.51-3.68,7.28-3.69,6.7-8.28,15.05-6.63,20.07,1.67,5.07,8.26,7.84,13.56,10.07,1.2.51,2.34.98,3.31,1.45,9.05,4.31,16.89,8.72,23.97,13.49,17.55,11.83,38.69,24.3,62.07,36.64h1.42c-23.81-12.52-45.32-25.18-63.12-37.19-7.1-4.79-14.97-9.22-24.05-13.54-.98-.47-2.13-.95-3.33-1.46-5.17-2.18-11.62-4.89-13.19-9.66-1.56-4.74,2.95-12.95,6.58-19.54,1.6-2.91,2.99-5.43,3.72-7.36.42-1.1.81-2.29,1.24-3.55,1.65-4.94,3.52-10.54,7.39-13.24,1.41-.99,3.05-1.49,4.89-1.49,5.1,0,10.93,3.73,15.62,6.72,1.45.93,2.82,1.8,4.02,2.47,8.24,4.57,16.77,9.3,25.66,13.55,19.32,9.24,39.75,16.07,60.71,20.33,4.2.85,8.58,1.27,12.81,1.68,7.35.7,14.95,1.43,21.87,4.45,12.22,5.34,12.17,15.78,12.12,26.83-.02,3.65-.04,7.42.4,11.05.85,7.02,2.2,13.61,3.72,19.95h.68c-1.53-6.37-2.89-12.98-3.75-20.03-.43-3.58-.42-7.34-.4-10.97.06-11.28.11-21.93-12.51-27.45Z"/>
  <path class="cls-1" d="m146.8,998.21c-32.9-16.13-62.51-32.89-85.64-48.49-3.05-2.06-6.35-3.76-9.54-5.42-4.42-2.28-8.98-4.65-12.86-7.93-5.27-4.47-6.63-8.86-4.4-14.26,1.75-4.23,4.69-6.28,9-6.28,7.19,0,16.76,5.83,23.75,10.09,2.76,1.68,5.14,3.13,7,4.02,20.49,9.79,42.14,17.05,64.37,21.55,5.01,1.02,9.8,1.48,14.44,1.92.8.08,1.64.14,2.49.21,5.58.44,11.9.94,15.66,5.09,3.77,4.16,4.13,12.58,4.42,19.34.08,1.87.16,3.64.3,5.19l.08.84c.41,4.46,1.02,11.08-.58,15.91h1.16c1.53-5.03.93-11.56.52-16.01l-.08-.84c-.14-1.52-.21-3.28-.29-5.13-.3-6.95-.67-15.59-4.71-20.04-4.06-4.48-10.61-5-16.39-5.45-.84-.07-1.67-.13-2.47-.21-4.61-.44-9.37-.9-14.32-1.9-22.14-4.49-43.71-11.71-64.12-21.47-1.81-.87-4.17-2.3-6.9-3.96-7.1-4.33-16.83-10.25-24.33-10.25-4.74,0-8.12,2.34-10.03,6.96-2.41,5.83-.91,10.77,4.71,15.53,3.97,3.37,8.6,5.76,13.07,8.07,3.17,1.64,6.44,3.33,9.43,5.35,23.17,15.62,52.83,32.42,85.77,48.57.63.31,1.15.56,1.61.79h2.52c-1.23-.6-3.64-1.79-3.64-1.79Z"/>
  <path class="cls-1" d="m216.47,553.92h-.15c-3.16,0-6.35,4.01-8.68,6.93-.5.63-.96,1.2-1.35,1.64-2.2,2.52-4.32,5.16-6.37,7.73-1.32,1.66-2.65,3.31-4,4.94l-.17.2c-4.43,5.26-6.24,8.69-5.53,10.48.2.49.68,1.11,1.88,1.25.17.02.35.03.53.03h.11c8.89-.2,16.08-8.25,19.58-13.03,3.33-4.56,5.72-9.48,6.54-13.5.19-.94.73-4.12-.53-5.74-.45-.58-1.1-.9-1.87-.93Zm1.31,6.44c-.8,3.87-3.11,8.64-6.35,13.07-3.38,4.62-10.3,12.39-18.71,12.57l-.08.56v-.56c-.14,0-.27,0-.4-.02-.8-.09-.93-.44-.98-.55-.24-.61-.21-2.75,5.35-9.35l.17-.2c1.36-1.64,2.69-3.3,4.02-4.96,2.04-2.55,4.16-5.19,6.34-7.69.4-.45.86-1.04,1.38-1.68,2.07-2.6,5.19-6.51,7.92-6.51h0c.45.02.78.18,1.03.5.77.98.65,3.21.32,4.82Z"/>
  <path class="cls-1" d="m450.69,779.04c29.46-3.36,61.05-37.5,61.46-66.43.63-44.36-24.85-79.79-49.49-114.06-4.18-5.82-8.51-11.83-12.59-17.75l-2.46-3.55c-11.6-16.72-24.74-35.67-29.01-56.14-3.62-17.36-9.15-57.72-3.13-71.68,4.41-10.21,16.98-16.06,29.13-21.71,8.39-3.91,16.32-7.59,21.89-12.65l.26-.24q19.05-17.28,32.04-17.72c3.93-.13,8.82-.3,15.72-.95,9.25-.87,14.72-2.22,18.71-3.2,2.54-.63,4.37-1.08,6-1.08,4.01,0,7.35,2.83,18.43,12.22,32.75,27.76,32.13,76.03,31.54,122.71-.75,58.74-1.53,119.49,64.88,138.72,9.55,2.76,18.85,4.17,27.64,4.17,24.97,0,46.23-11.17,61.48-32.29,22.38-30.99,28.32-79.36,14.79-120.36-31.23-94.63-105.87-148.74-186.16-200.29-72.97-46.86-142.47-59.77-201.88-68.2-4.3-.61-8.39-.92-12.16-.92-24.09,0-35.55,12.27-50.05,27.8-5.55,5.95-11.3,12.1-18.43,18.37-8.16,7.18-18.55,12.1-28.59,16.85-16.38,7.75-31.86,15.08-38.25,31.36-13.57,34.55,19.76,61.48,49.17,85.23,13.61,11,26.47,21.38,34,31.76,29.87,41.16,20.93,110.57-6.15,149.56-8.45,12.17-24.66,27.23-41.82,43.17-28.42,26.4-60.62,56.33-66.31,81.47-2.68,11.83-1.98,20.08,2.14,25.23,3.44,4.3,9.23,6.4,17.71,6.4,13.95,0,33.95-5.76,55.11-11.85,25.87-7.45,55.18-15.89,80.19-15.89,11.92,0,21.79,1.86,30.17,5.67,9.63,4.39,17.79,10.74,25.69,16.89,13.02,10.13,25.32,19.71,42.73,19.71,1.83,0,3.71-.11,5.6-.33Zm-73.55-37.28c-8.53-3.88-18.55-5.77-30.63-5.77-25.16,0-54.56,8.47-80.5,15.94-21.09,6.07-41.01,11.81-54.8,11.81-8.12,0-13.63-1.96-16.84-5.98-3.89-4.87-4.52-12.82-1.92-24.29,5.61-24.81,37.69-54.61,65.98-80.9,17.2-15.98,33.45-31.08,41.97-43.35,27.3-39.31,36.28-109.3,6.14-150.85-7.62-10.5-20.53-20.93-34.2-31.97-29.11-23.52-62.1-50.17-48.83-83.96,6.23-15.87,21.51-23.11,37.69-30.76,10.11-4.79,20.57-9.74,28.85-17.02,7.17-6.31,12.93-12.48,18.51-18.45,14.32-15.33,25.62-27.44,49.24-27.44,3.72,0,7.76.31,12.01.91,59.3,8.41,128.65,21.3,201.44,68.03,80.11,51.44,154.59,105.42,185.7,199.71,13.42,40.68,7.54,88.65-14.64,119.36-15.03,20.82-35.98,31.83-60.58,31.83-8.68,0-17.88-1.39-27.33-4.12-29.43-8.52-48.04-26.02-56.91-53.5-7.94-24.6-7.55-54.87-7.18-84.14.6-46.94,1.22-95.48-31.93-123.57-15.84-13.43-16.26-13.63-25.41-11.38-3.96.98-9.38,2.31-18.55,3.18-6.86.65-11.74.81-15.65.95q-13.39.46-32.75,18.01l-.26.24c-5.44,4.94-13.3,8.59-21.62,12.46-12.34,5.74-25.1,11.68-29.68,22.28-6.13,14.2-.59,54.87,3.06,72.34,4.31,20.69,17.53,39.74,29.18,56.55l2.46,3.55c4.09,5.92,8.42,11.94,12.61,17.76,24.54,34.12,49.91,69.41,49.29,113.39-.4,28.46-31.49,62.05-60.47,65.35-1.84.21-3.68.32-5.47.32-17.02,0-29.18-9.46-42.05-19.47-7.94-6.18-16.16-12.58-25.91-17.02Z"/>
  <path class="cls-1" d="m1000,4.76c-3.34-1.72-6.73-3.31-10.2-4.76h-1.8c4.09,1.66,8.09,3.49,12,5.52v-.76Z"/>
  <path class="cls-1" d="m969.79,436.85c-1.12-.82-2.86-2.34-5.07-4.26-8.45-7.37-22.58-19.71-32.55-19.71-3.9,0-6.81,1.89-8.65,5.62-2.32,4.68,2.78,15.51,6.14,22.69.82,1.75,1.53,3.27,1.98,4.36.91,2.24,1.74,4.3,2.45,6.13,4.72,12.35,9.59,25.12,13.21,38.97.38,1.45.74,3.08,1.13,4.81,1.65,7.39,3.71,16.59,8.82,21.09,1.98,1.75,3.92,2.91,5.74,3.46.83.25,1.67.38,2.48.38,6.04,0,10.19-6.87,14.2-13.51.91-1.51,1.86-3.08,2.81-4.52l.9-1.37c15.3-23.32,24.53-37.39-3.59-56.94-2.74-1.9-6.29-4.49-9.99-7.2Zm12.65,63.53l-.9,1.37c-.96,1.46-1.91,3.03-2.83,4.55-3.86,6.38-7.84,12.98-13.26,12.98-.7,0-1.43-.11-2.16-.33-1.67-.5-3.46-1.59-5.32-3.23-4.84-4.26-6.85-13.27-8.47-20.5-.39-1.75-.76-3.39-1.14-4.85-3.63-13.91-8.52-26.71-13.25-39.09-.7-1.84-1.54-3.91-2.45-6.15-.46-1.12-1.17-2.65-2-4.42-3.08-6.55-8.23-17.52-6.16-21.72,1.67-3.36,4.17-5,7.66-5,9.55,0,23.49,12.17,31.82,19.44,2.22,1.94,3.98,3.48,5.14,4.32,3.71,2.71,7.26,5.3,10.01,7.21,27.23,18.93,18.22,32.66,3.3,55.42Z"/>
  <path class="cls-1" d="m987.98,411.9c-4.9-3.58-9.78-7.57-14.96-11.81-15.82-12.93-33.75-27.59-49.87-27.59-3.17,0-6.19.56-9.23,1.71-28.47,10.77-24.38,40.9-19.41,57.9,3.03,10.39,6.96,20.66,10.75,30.59,4.42,11.58,9,23.56,12.18,35.76,1.92,7.36,2.89,15.11,3.82,22.61,2.86,22.99,5.57,44.71,36.2,44.71,2.43,0,5.05-.14,7.78-.41,3.48-.35,6.36-.89,8.79-1.68,8.15-2.63,10.59-7.57,14.28-15.06,1.12-2.26,2.38-4.83,3.95-7.59,2.41-4.24,5.02-8.26,7.75-12.14v-1.15c-2.94,4.13-5.75,8.42-8.33,12.96-1.58,2.78-2.84,5.35-3.96,7.63-3.61,7.33-6,12.18-13.88,14.72-2.39.77-5.22,1.31-8.65,1.65-2.71.27-5.3.4-7.71.4-30.05,0-32.59-20.45-35.54-44.13-.94-7.52-1.91-15.29-3.84-22.7-3.19-12.24-7.77-24.23-12.2-35.82-3.79-9.92-7.71-20.18-10.73-30.54-4.9-16.78-8.95-46.51,19.01-57.09,2.96-1.12,5.9-1.66,8.99-1.66,15.88,0,33.71,14.58,49.45,27.44,5.18,4.24,10.08,8.24,14.99,11.83,3.7,2.71,6.97,5.09,9.41,6.78.99.69,2,1.38,3,2.06v-.81c-.87-.6-1.76-1.2-2.62-1.8-2.44-1.69-5.7-4.07-9.39-6.77Z"/>
  <path class="cls-1" d="m970.45,908.34c-9.77,15.21-21.31,29.82-30.27,40.85-.49.61-1.03,1.24-1.59,1.89-3.99,4.69-8.96,10.52-5.45,16.39,3.4,5.68,13.1,6.82,20.19,7.65,1.27.15,2.48.29,3.49.45,15.25,2.31,29.69,6.6,43.18,12.72v-.73c-13.46-6.08-27.88-10.34-43.08-12.65-1.03-.16-2.24-.3-3.52-.45-6.95-.82-16.46-1.94-19.69-7.33-3.27-5.46,1.53-11.09,5.38-15.62.56-.66,1.1-1.29,1.6-1.9,8.97-11.04,20.53-25.67,30.31-40.91,8.68-13.52,14.82-27.52,21.31-42.34,2.19-5,4.8-9.5,7.68-13.42v-1.11c-3.13,4.13-5.95,8.91-8.29,14.26-6.48,14.8-12.61,28.77-21.26,42.25Z"/>
  <path class="cls-1" d="m732.92,11.71c3.47,11.73,28.26,18.21,44.07,18.21,22.56,0,46.21-4.45,71.24-9.16,25.28-4.76,51.43-9.68,76.86-9.68,27.88,0,51.29,5.97,71.57,18.26,1.08.65,2.23,1.35,3.34,2.03v-1.3c-.92-.56-1.87-1.14-2.76-1.68-20.46-12.4-44.06-18.42-72.14-18.42-25.53,0-51.73,4.93-77.06,9.7-24.98,4.7-48.58,9.14-71.04,9.14-15.8,0-39.81-6.63-43-17.42-1.07-3.61.22-7.43,3.84-11.39h-1.45c-3.4,4.02-4.57,7.94-3.45,11.71Z"/>
  <path class="cls-1" d="m920.19,88.74c-2.92,0-5.76-.02-8.55-.05-2.69-.02-5.32-.04-7.92-.04-15.13,0-27.18.81-40.47,4.85-6.95,2.11-13.46,5.43-19.75,8.64-10.51,5.36-20.44,10.42-32.32,10.42-1.97,0-3.96-.14-5.93-.43-8.76-1.27-15.32-6.44-21.67-11.44-7.13-5.62-13.87-10.93-23.32-10.93-.86,0-1.74.05-2.61.14-5.83.6-15.17,5.85-24.19,10.93-5.81,3.27-11.29,6.35-15.18,7.79-5.66,2.09-9.9,3.1-12.99,3.83-9.33,2.22-10.51,3.04-15.04,20.24-1.25,4.75-2.16,9.2-3.04,13.5-3.27,15.95-5.84,28.55-22.83,40.58-11.46,8.1-26.01,12.04-44.47,12.04-18.29,0-37.41-3.83-54.28-7.21-8.82-1.77-17.15-3.44-23.34-4.1-3.6-.38-9.14-.61-14.82-.61-16.29,0-35.38,5.97-36.72,14.54-.63,4.06,2.53,10.15,21.21,16.13l2.08.67c71.2,22.86,120.85,52.69,171.39,102.96,13.94,13.87,24.59,20.33,33.51,20.33,2.09,0,4.14-.37,6.09-1.09,9.48-3.54,16.39-15.52,24.4-29.38,4.13-7.16,8.82-15.27,14.35-23.08,26.81-37.83,65.29-65.47,108.35-77.83,12.7-3.65,25.1-5.5,36.86-5.5,38.34,0,65.4,18.79,91.02,38.13v-1.39c-25.57-19.27-52.65-37.85-91.02-37.85-11.86,0-24.36,1.86-37.16,5.54-43.29,12.43-81.99,40.22-108.94,78.25-5.57,7.85-10.26,15.99-14.41,23.17-7.9,13.68-14.72,25.5-23.82,28.9-1.82.68-3.74,1.03-5.7,1.03-8.61,0-19.01-6.36-32.73-20.01-50.67-50.41-100.45-80.32-171.83-103.23l-2.09-.67c-13.99-4.48-21.25-9.77-20.45-14.9,1.11-7.12,18.09-13.6,35.62-13.6,5.65,0,11.15.23,14.71.61,6.14.65,14.45,2.32,23.24,4.08,16.92,3.39,36.1,7.24,54.49,7.24,18.7,0,33.45-4.01,45.11-12.24,17.34-12.29,19.96-25.08,23.27-41.27.88-4.28,1.78-8.71,3.03-13.44,4.52-17.13,5.44-17.35,14.22-19.45,3.12-.74,7.4-1.76,13.12-3.87,3.97-1.46,9.49-4.57,15.34-7.86,8.51-4.79,18.16-10.22,23.76-10.79.84-.09,1.68-.13,2.5-.13,9.07,0,15.66,5.19,22.64,10.69,6.46,5.09,13.14,10.36,22.2,11.67,2.02.29,4.08.44,6.09.44,12.15,0,22.66-5.36,32.82-10.54,6.25-3.19,12.71-6.48,19.57-8.56,13.16-4,25.12-4.8,40.15-4.8,2.59,0,5.23.02,7.91.04,2.79.02,5.64.05,8.56.05,13.56,0,25.7,1.58,37.1,4.84,14.41,4.12,28.55,9.88,42.71,16.58v-1.23c-14.06-6.63-28.09-12.33-42.41-16.42-11.5-3.29-23.74-4.89-37.4-4.89Z"/>
  <path class="cls-1" d="m975.95,926.51c-7.19,8.64-15.33,18.43-14.95,27.81.29,7.23,7.28,8.44,13.45,9.52,1.49.26,2.89.5,4.21.82,6.31,1.52,13.8,4.13,21.34,7.24v-.72c-7.5-3.08-14.92-5.67-21.19-7.18-1.34-.32-2.75-.57-4.25-.83-6.21-1.08-12.62-2.2-12.9-8.89-.37-9.12,7.69-18.81,14.8-27.35,2.93-3.52,5.7-6.84,7.62-9.84,6.33-9.86,11.29-19.71,15.92-29.81v-1.6c-4.8,10.54-9.9,20.79-16.48,31.05-1.9,2.96-4.65,6.27-7.57,9.77Z"/>
  <path class="cls-1" d="m988.52,431.45c-2.58-1.79-6.06-4.33-9.7-6.99-5.23-3.82-10.27-7.94-15.63-12.32-1.21-.99-2.52-2.1-3.93-3.3-8.95-7.59-21.2-18-32.47-18-3.11,0-5.99.81-8.57,2.41-19.48,12.06-7.77,40.86-.77,58.07.85,2.1,1.66,4.08,2.32,5.82,4.57,11.97,9.3,24.34,12.7,37.38.64,2.45,1.28,5.33,1.96,8.38,3.1,13.96,7.36,33.09,18.04,39.98,1.76,1.14,3.61,1.85,5.5,2.11.57.08,1.15.12,1.73.12,13.06,0,26.07-19.85,35.58-34.35,1.72-2.63,3.29-5,4.72-7.07v-1.16c-1.58,2.24-3.33,4.89-5.28,7.86-9.42,14.37-22.33,34.05-35.02,34.05-.55,0-1.1-.04-1.63-.11-1.8-.25-3.56-.92-5.24-2.01-10.45-6.74-14.67-25.71-17.75-39.56-.68-3.05-1.32-5.94-1.96-8.4-3.41-13.08-8.14-25.47-12.72-37.45-.67-1.75-1.47-3.73-2.33-5.83-6.92-17.01-18.5-45.49.5-57.25,2.48-1.53,5.24-2.31,8.22-2.31,11.03,0,23.17,10.31,32.04,17.84,1.41,1.19,2.73,2.31,3.97,3.33,5.34,4.37,10.39,8.49,15.63,12.32,3.64,2.66,7.13,5.2,9.71,7,3.46,2.4,6.97,4.78,10.7,7.3.39.27.77.51,1.16.77v-.8c-.27-.18-.54-.36-.81-.55-3.71-2.51-7.21-4.88-10.67-7.28Z"/>
  <path class="cls-1" d="m873.12,589.16c1.26,1.65,3.62,3.89,9.55,4.38,22.19,1.82,55.72,4.56,84.04,30.38l.32.29c9.68,8.85,17.54,20.05,23.36,33.29,1.61,3.65,4.23,5.75,7.17,5.75.8,0,1.62-.16,2.43-.5v-.79c-.8.38-1.62.63-2.43.63-2.67,0-5.06-1.95-6.56-5.35-5.87-13.32-13.78-24.6-23.53-33.51l-.33-.29c-28.49-25.97-62.15-28.73-84.43-30.55-5.67-.46-7.9-2.57-9.08-4.12-2.83-3.7-3.18-9.4-2.86-11.16,3.08-13.6,6.92-30.53,5.48-49.05-2.43-31.36-14.95-58.31-27.07-84.37-9.72-20.91-20.74-44.62-16.91-55.42,6.81-19.23,34.65-46.8,46.3-57.76,7.4-6.97,16.2-10.5,26.14-10.5,5.69,0,10.6,1.2,13.71,2.2,20.42,6.59,49.33,21.69,81.56,42.42v-.79c-32.13-20.65-60.96-35.69-81.36-42.27-3.16-1.02-8.14-2.24-13.92-2.24-10.12,0-19.07,3.59-26.6,10.68-11.69,11-39.61,38.66-46.47,58.03-3.92,11.06,7.16,34.9,16.94,55.93,12.09,26,24.59,52.9,27.01,84.14,1.43,18.42-2.39,35.3-5.47,48.88-.34,1.84.03,7.82,2.99,11.68Z"/>
  <path class="cls-1" d="m998.03,922.88c-3.58,5.86-7.63,12.51-6.66,19.74.96,7.11,4.2,10.16,8.63,12.39v-.75c-4.17-2.16-7.07-5.06-7.97-11.73-.94-7,3.05-13.54,6.56-19.3l.67-1.09c.26-.43.49-.91.74-1.35v-1.39c-.43.81-.85,1.63-1.31,2.39l-.67,1.09Z"/>
  <path class="cls-1" d="m708.71,34.47c19.16,12.04,41.49,17.89,68.28,17.89,24.64,0,50.44-4.85,75.38-9.55,24.28-4.57,49.38-9.29,72.72-9.29s43.28,4.91,59.96,15.02c2.91,1.77,5.97,3.63,9.16,5.57,1.89,1.15,3.82,2.33,5.8,3.53v-1.82c-1.69-1.03-3.36-2.04-4.99-3.04-3.19-1.94-6.25-3.8-9.16-5.57-16.93-10.26-36.8-15.25-60.76-15.25s-48.65,4.74-73,9.32c-24.88,4.68-50.6,9.52-75.1,9.52-26.48,0-48.55-5.78-67.45-17.66-12.7-7.98-18.82-16.37-18.22-24.94.19-2.73,1.09-5.48,2.63-8.22h-1.73c-1.41,2.69-2.26,5.41-2.45,8.11-.65,9.18,5.72,18.05,18.94,26.36Z"/>
  <path class="cls-1" d="m914.91,569.02c5.05,2.77,11.99,3.95,18.7,5.1,4.97.85,10.1,1.72,14.29,3.23,2.64.95,5.56,2.39,8.65,3.92,6.37,3.14,13.58,6.7,20.16,6.7,1.27,0,2.49-.13,3.63-.39.31-.07.61-.15.9-.24,9.41-2.81,14.44-14.62,18.76-25.47v-1.8c-.03.07-.05.13-.08.2-4.39,11.06-9.38,23.6-18.87,26.44-.28.08-.57.16-.86.23-1.1.25-2.27.38-3.48.38-6.42,0-13.56-3.52-19.87-6.63-3.1-1.53-6.04-2.98-8.71-3.94-4.24-1.53-9.4-2.41-14.4-3.26-6.66-1.13-13.54-2.3-18.49-5.02-10.97-6.02-9.82-17.04-8.61-28.7.47-4.57.96-9.29.63-13.6-2.87-36.97-16.59-66.5-29.86-95.06-6.02-12.97-6.47-27.17-1.24-40.01,5.65-13.89,17.51-25.11,32.52-30.78,4.68-1.77,9.55-2.67,14.49-2.67,21.42,0,41.53,16.44,59.28,30.95,5.03,4.11,9.77,7.99,14.32,11.31,1.18.86,2.24,1.64,3.25,2.37v-.82c-.89-.65-1.84-1.34-2.86-2.08-4.54-3.31-9.28-7.19-14.3-11.29-17.83-14.58-38.04-31.1-59.7-31.1-5.02,0-9.97.91-14.72,2.71-15.18,5.74-27.17,17.1-32.9,31.15-5.3,13.01-4.85,27.4,1.26,40.54,13.25,28.5,26.94,57.97,29.8,94.83.33,4.25-.16,8.95-.63,13.48-1.18,11.37-2.4,23.13,8.95,29.36Z"/>
  <path class="cls-1" d="m920.19,111.19c-18.67,0-38.53,3.39-59.58,6.98-23.69,4.05-48.19,8.23-74.28,8.23-1.88,0-3.74-.02-5.54-.07-9.06-.21-16.74-1.71-23.52-3.03-5.86-1.14-10.92-2.13-15.78-2.13-11.54,0-20.02,6.08-29.27,20.99-4.46,7.19-7.72,15.77-10.87,24.08-5.57,14.69-11.33,29.88-24.07,38.88-4.38,3.1-12.77,5.5-21.65,8.03-15.52,4.43-33.11,9.46-35.49,19.95-2.98,13.15,24.01,31.14,38.51,40.81,2.7,1.8,5.03,3.35,6.56,4.48,17,12.48,31.06,20.8,44.42,20.8,1.83,0,3.65-.16,5.42-.48,10.66-1.92,20.34-9.46,30.47-23.75,29.74-41.97,72.52-72.66,120.45-86.41,14.72-4.22,29.2-6.37,43.04-6.37,38.3,0,66.64,15.49,91.02,32.73v-.82c-24.37-17.2-52.72-32.58-91.02-32.58-13.91,0-28.45,2.15-43.22,6.39-48.08,13.8-90.98,44.58-120.81,86.67-10.02,14.13-19.57,21.59-30.04,23.48-1.73.31-3.51.47-5.3.47-13.18,0-27.13-8.26-44.03-20.67-1.54-1.13-3.88-2.69-6.58-4.49-14.37-9.58-41.1-27.4-38.22-40.11,2.3-10.1,19.69-15.07,35.03-19.45,8.94-2.55,17.38-4.97,21.86-8.13,12.9-9.12,18.69-24.4,24.3-39.19,3.14-8.27,6.38-16.83,10.81-23.96,9.12-14.68,17.44-20.67,28.71-20.67,4.79,0,9.82.98,15.65,2.11,6.8,1.33,14.52,2.83,23.63,3.04,1.8.04,3.67.07,5.55.07,26.15,0,50.68-4.19,74.43-8.24,20.99-3.58,40.82-6.97,59.44-6.97,11.49,0,21.65,1.31,31.07,4,16.13,4.61,32.28,11.65,48.75,19.9v-.75c-16.4-8.2-32.49-15.2-48.57-19.79-9.47-2.71-19.69-4.02-31.25-4.02Z"/>
  <path class="cls-1" d="m900.53,580.99c4.54,1.14,8.98,2.17,13.27,3.17,23.21,5.39,43.26,10.04,63.3,28.21l.4.36c4.61,4.18,8.24,6.2,11.12,6.2.45,0,.89-.05,1.31-.15,4.35-1.01,6.52-7.09,8.91-14.93.37-1.22.77-2.42,1.16-3.63v-2.19c-.62,1.87-1.23,3.74-1.8,5.63-2.32,7.64-4.42,13.55-8.42,14.48-2.88.68-6.69-1.25-11.83-5.9l-.4-.36c-20.17-18.28-40.3-22.95-63.6-28.36-4.29-1-8.72-2.02-13.26-3.16-16.28-4.09-13.53-19.41-10.86-34.23,1.16-6.48,2.37-13.17,1.93-18.78-2.65-34.16-15.77-62.4-28.47-89.72-1.52-3.26-3.14-6.46-4.72-9.54-8.16-16.02-15.2-29.85-5.13-46.87,7.58-12.81,18.93-23.29,29.91-33.43,1.98-1.83,3.95-3.65,5.88-5.47,4.24-3.98,10.01-6,17.15-6,27.35,0,69.41,29.14,93.62,46.69v-.82c-24.32-17.63-66.21-46.54-93.62-46.54-7.31,0-13.24,2.08-17.6,6.18-1.93,1.82-3.9,3.64-5.88,5.46-11.01,10.17-22.4,20.68-30.03,33.57-10.26,17.34-2.79,32,5.11,47.51,1.57,3.08,3.19,6.27,4.71,9.53,12.67,27.26,25.76,55.44,28.4,89.48.43,5.52-.77,12.17-1.92,18.6-2.72,15.12-5.53,30.76,11.36,35Z"/>
  <path class="cls-1" d="m433.34,901.02c-5.61,8.48-12.6,19.03-10.19,26.32.98,2.97,3.46,5.19,7.36,6.6.74.26,1.55.4,2.41.4,8.58,0,22.16-13.26,34.14-24.96,7.62-7.44,14.82-14.47,19.15-16.44,20.7-9.4,49.24-13.87,74.41-17.81,9.94-1.56,19.33-3.03,27.99-4.73,19.76-3.88,38.83-5.84,56.7-5.84,58.47,0,107.56,21.06,145.92,62.6,4.3,4.66,10.56,7.02,18.59,7.02,25.04,0,67.99-24.4,98.25-69.62,18.1-27.05,44.37-82.35,17.05-148.78-10.95-26.63-27.23-39.03-51.22-39.03-18.26,0-39.08,6.72-63.19,14.49-29.67,9.57-63.29,20.42-99.47,20.42-28.16,0-54.04-6.5-79.09-19.87-77.25-41.24-79.5-116.46-72.83-177.4,2.59-23.7-1.62-42.45-12.17-54.24-7.45-8.32-17.61-12.72-29.38-12.72-22.29,0-50.1,17.32-60.14,50.42-9.44,31.16,12.94,59.48,38.86,92.28,29.23,36.98,62.35,78.9,55.93,134.83-3.19,27.73-13.31,54.34-27.06,71.18-10.43,12.77-19.65,13.91-29.41,15.11-7.45.92-15.16,1.87-24.2,7.61-6.89,4.38-9.06,11.84-11.35,19.73-1.58,5.44-3.21,11.07-6.54,15.68-1.82,2.53-4.99,3.08-8.33,3.66-4.42.77-9.43,1.64-12.09,7.36-1.85,3.98.59,8.67,2.95,13.2,1.97,3.77,4,7.68,3.39,10.93-.49,2.6-3.25,6.77-6.45,11.6Zm4.19-23.12c-2.32-4.45-4.51-8.66-2.92-12.07,2.37-5.11,6.83-5.88,11.14-6.63,3.45-.6,7.03-1.22,9.15-4.17,3.45-4.79,5.12-10.53,6.73-16.07,2.22-7.66,4.32-14.89,10.81-19.01,8.8-5.59,16.36-6.52,23.67-7.42,10.02-1.23,19.49-2.4,30.25-15.57,13.9-17.03,24.13-43.88,27.34-71.84,6.49-56.46-26.81-98.6-56.19-135.77-25.7-32.51-47.89-60.59-38.64-91.11,9.85-32.5,37.09-49.51,58.91-49.51,11.39,0,21.22,4.25,28.43,12.3,10.3,11.51,14.4,29.92,11.85,53.24-6.71,61.33-4.42,137.06,73.5,178.67,25.24,13.47,51.31,20.03,79.69,20.02,36.38,0,70.11-10.88,99.87-20.48,24-7.75,44.73-14.43,62.79-14.43,23.73,0,39.16,11.79,50.03,38.23,27.1,65.88,1.03,120.74-16.93,147.58-28.92,43.23-72.12,69.06-97.18,69.06-7.67,0-13.61-2.22-17.65-6.61-38.61-41.81-88.02-63.01-146.86-63.01-17.95,0-37.11,1.97-56.94,5.86-8.64,1.69-18.02,3.16-27.94,4.72-25.26,3.96-53.88,8.44-74.74,17.91-4.53,2.06-11.48,8.84-19.52,16.69-11.81,11.53-25.19,24.59-33.25,24.59-.72,0-1.38-.11-1.98-.32-3.56-1.28-5.71-3.18-6.58-5.8-2.22-6.69,4.58-16.96,10.04-25.21,3.27-4.95,6.1-9.22,6.64-12.07.69-3.68-1.45-7.79-3.51-11.76Z"/>
  <path class="cls-1" d="m295.51,904.69c10.02-9.06,25.86-17.01,44.22-26.21,12.82-6.43,30.03-22.2,29-35.11-.56-7.05-6.23-12.33-16.84-15.67-4.17-1.32-8.74-1.96-13.97-1.96-13.6,0-28.9,4.52-42.4,8.5-6.17,1.82-12,3.54-17.31,4.75-44.68,10.15-71.64,16.28-95.81,16.28-21.4,0-40.16-4.8-64.76-16.56-23.68-11.32-40.82-21.95-54.61-30.5-20.28-12.58-29.75-18.14-41.75-18.14-5.59,0-12.28,1.25-20.3,3.81v1.16c8.04-2.58,14.73-3.86,20.3-3.86,11.69,0,21.07,5.51,41.18,17.98,13.8,8.55,30.97,19.2,54.7,30.54,24.76,11.84,43.66,16.67,65.24,16.67,24.29,0,51.3-6.14,96.05-16.31,5.35-1.22,11.19-2.94,17.38-4.77,13.43-3.96,28.65-8.45,42.09-8.45,5.11,0,9.57.63,13.63,1.91,10.14,3.2,15.55,8.15,16.07,14.7.99,12.42-15.85,27.74-28.39,34.03-18.42,9.24-34.34,17.21-44.46,26.38-30.54,27.64-25.62,63.74-16.36,96.13h1.16c-9.23-32.17-14.21-68.02,15.94-95.31Z"/>
  <path class="cls-1" d="m969.91,749.36c2.85,1.83,7.49,2.83,13.04,2.83,4.95,0,10.81-.83,17.05-2.73v-1.63c-6.24,1.95-12.11,2.8-17.05,2.8-5.19,0-9.64-.94-12.21-2.58-13.04-8.34-18.81-23.06-24.91-38.64-5.27-13.45-10.71-27.35-21.28-37.16l-.03-.46h-.46c-12.16-10.72-28.54-15.94-50.07-15.94s-43.08,5.05-60.84,9.1c-12.13,2.77-22.6,5.16-29.34,5.16-3.96,0-6.37-.82-7.36-2.49-1.32-2.23-.33-6.41,2.96-12.43,15.34-28.04,46.32-94.89,44.18-122.55-1.69-21.83-12.17-44.37-22.3-66.17-14.67-31.57-29.85-64.21-18.8-95.39,12.6-35.58,68.13-99.17,107.64-104.56,2.3-.31,4.79-.47,7.39-.47,25.7,0,63.3,15.33,102.49,37.53v-1.66c-39.2-22.15-76.77-37.43-102.49-37.43-2.67,0-5.23.16-7.6.49-40.01,5.46-96.17,69.67-108.89,105.58-11.26,31.78,4.05,64.72,18.86,96.57,10.08,21.67,20.49,44.09,22.17,65.63,1.91,24.66-25.12,87.19-43.99,121.68-3.67,6.71-4.61,11.15-2.94,13.97,1.3,2.19,4.14,3.25,8.7,3.25,6.92,0,17.47-2.41,29.69-5.2,17.68-4.04,39.67-9.06,60.49-9.06s37.39,5.16,49.27,15.77h0c10.46,9.57,15.88,23.42,21.12,36.8,6.2,15.83,12.05,30.77,25.52,39.39Z"/>
  <path class="cls-1" d="m956.95,850.81c-5.87,13.39-11.41,26.03-18.43,36.97-40.93,63.7-86.54,74.43-134.84,85.8-3.68.87-7.54,1.69-11.28,2.48-16.09,3.43-32.72,6.98-46.28,15.78-4.24,2.75-7.48,5.48-9.74,8.15h1.45c2.15-2.35,5.11-4.76,8.89-7.22,13.39-8.69,29.92-12.22,45.91-15.63,3.74-.8,7.61-1.62,11.3-2.49,48.52-11.42,94.34-22.2,135.51-86.28,7.07-11.01,12.63-23.69,18.53-37.15,9.35-21.33,19.95-45.5,34.6-53.58,2.6-.99,5.07-1.85,7.43-2.61v-1.16c-2.5.8-5.12,1.71-7.89,2.77-15.05,8.29-25.73,32.65-35.16,54.16Z"/>
  <path class="cls-1" d="m726.15,975.89c26.17-11.68,49.85-17.25,72.75-22.64,45.99-10.82,85.71-20.17,122.07-76.77,6.13-9.54,11.35-21.45,16.88-34.06,11.55-26.35,23.49-53.59,45.66-64.85,5.97-2.32,11.42-4.11,16.5-5.45v-1.6c-5.28,1.38-10.96,3.23-17.22,5.67-22.65,11.49-34.71,39-46.37,65.6-5.5,12.55-10.7,24.41-16.76,33.85-36.02,56.07-75.46,65.35-121.12,76.09-22.97,5.41-46.71,10.99-73.02,22.73-17.12,7.64-28.55,16.48-33.29,25.53h1.73c4.77-8.46,15.82-16.8,32.19-24.11Z"/>
  <path class="cls-1" d="m731.28,922.73c-4.12-13.03-22.13-22.76-53.53-28.91-20.68-4.05-41.82-6.11-62.83-6.11-30.87,0-62.14,4.42-92.92,13.13-4.17,1.18-8.36,2.47-12.44,3.82-53.12,17.65-83.78,47.07-97.55,95.33h1.63c13.7-47.47,44.02-76.44,96.41-93.85,4.07-1.35,8.23-2.63,12.38-3.8,30.64-8.68,61.77-13.08,92.5-13.08,20.91,0,41.95,2.05,62.53,6.08,30.81,6.04,48.42,15.41,52.35,27.85,3.01,9.53-1.98,21.16-14.83,34.58-13.29,13.87-26.73,27.89-38.8,42.22h2.05c11.82-13.95,24.91-27.62,37.88-41.14,13.27-13.85,18.39-26.01,15.19-36.12Z"/>
  <path class="cls-1" d="m608.13,799.11c.91.5,1.89.76,2.9.76,3.95,0,7.82-3.86,11.25-7.26,1.98-1.97,3.86-3.83,5.39-4.57,2-.96,3.87-1.42,5.71-1.42,3.52,0,6.52,1.69,9.99,3.64,1.24.7,2.53,1.42,3.9,2.1,3.31,1.64,6.55,2.43,9.9,2.43s6.49-.77,9.8-1.58c3.43-.85,6.99-1.72,11.14-1.81h.53c8.44,0,16.17,4.37,23.64,8.6,7.43,4.21,15.12,8.56,23.48,8.56,4.02,0,7.87-.97,11.79-2.97,3.13-1.6,5.52-3.57,7.63-5.3,3.44-2.84,6.42-5.29,11.43-5.29,1.47,0,3.04.2,4.79.62,14.26,3.37,20.53,16.49,26.59,29.18,2.84,5.95,5.78,12.1,9.49,17,7.43,9.84,17.03,15.26,27.02,15.26h.52c10.02-.19,19.63-5.71,27.07-15.56,10.1-13.36,28.45-56.89,20.85-78.55-2.25-6.4-6.56-10.44-12.84-12.03-2.21-.56-4.27-.83-6.27-.83-6.49,0-11.34,2.9-16.95,6.26-1.26.76-2.57,1.54-3.95,2.32-11.39,6.45-22.68,7.78-34.63,9.2-4.69.55-9.54,1.13-14.45,2.03-5.47,1.01-10.39,2.91-15.14,4.76-6.26,2.43-12.17,4.72-18.67,4.72-4.4,0-8.69-1.06-13.12-3.24-9.14-4.5-19.12-8.67-30.13-8.67-3.65,0-7.23.43-10.94,1.32-1.69.41-3.35.83-4.97,1.24-6.37,1.62-12.39,3.16-18.49,3.16-4.96,0-9.61-1.03-14.22-3.15l-1.96-.91c-8.39-3.88-17.06-7.89-25.94-7.89-4.9,0-9.42,1.19-13.83,3.64-5.56,3.09-13,16.07-12.98,25.12,0,4.28,1.63,7.43,4.7,9.12Zm8.82-33.27c4.24-2.36,8.59-3.5,13.3-3.5,8.63,0,17.19,3.96,25.47,7.79l1.96.91c4.76,2.19,9.56,3.25,14.69,3.25,6.24,0,12.33-1.55,18.77-3.19,1.62-.41,3.27-.83,4.96-1.24,3.62-.87,7.12-1.29,10.68-1.29,10.79,0,20.62,4.11,29.64,8.55,4.59,2.26,9.04,3.36,13.61,3.36,6.71,0,12.72-2.33,19.07-4.8,4.71-1.83,9.57-3.71,14.94-4.7,4.88-.9,9.71-1.47,14.38-2.02,12.06-1.42,23.46-2.77,35.04-9.33,1.39-.79,2.7-1.57,3.97-2.33,5.48-3.28,10.2-6.11,16.39-6.11,1.91,0,3.88.26,6,.8,5.89,1.49,9.95,5.3,12.06,11.32,7.48,21.31-10.7,64.3-20.69,77.52-7.23,9.56-16.54,14.93-26.21,15.11h-.5c-9.63,0-18.91-5.26-26.13-14.82-3.64-4.81-6.42-10.64-9.37-16.81-6.18-12.93-12.56-26.29-27.34-29.78-1.84-.43-3.49-.65-5.04-.65-5.41,0-8.53,2.57-12.14,5.54-2.17,1.78-4.41,3.63-7.43,5.17-3.75,1.91-7.44,2.85-11.28,2.85-8.07,0-15.29-4.09-22.94-8.41-7.6-4.3-15.45-8.75-24.19-8.75h-.55c-4.28.1-7.89.99-11.38,1.85-3.24.8-6.3,1.55-9.53,1.55s-6.21-.74-9.41-2.32c-1.35-.67-2.62-1.38-3.85-2.07-3.45-1.94-6.72-3.78-10.53-3.78-2.01,0-4.03.5-6.19,1.53-1.7.81-3.64,2.74-5.69,4.78-3.27,3.25-6.97,6.93-10.46,6.93-.83,0-1.6-.2-2.36-.62-2.73-1.51-4.12-4.25-4.13-8.15-.01-9.18,7.73-21.55,12.41-24.15Z"/>
  <path class="cls-1" d="m464.93,877.67c1.42.37,3.98.57,7.2.57,6.75,0,31.82-1,70.9-13.93,32.68-10.81,70.9-16.75,107.61-16.75,60.43,0,100.57,9.06,152.28,58.61,3.67,3.52,8.59,5.3,14.62,5.3,22.47,0,56.46-24.49,77.37-55.75,16.34-24.42,40.08-74.29,15.56-133.91-10.56-25.66-23.81-29.2-36.56-29.2-15.76,0-35.47,6.36-58.32,13.73-30.78,9.93-65.66,21.18-104.34,21.18-30.83,0-59.14-7.11-86.54-21.74-86.6-46.23-87.78-132.36-81.13-193.12,2.06-18.82-.86-33.71-8.22-41.92-4.43-4.94-10.34-7.45-17.58-7.45-16.45,0-37.18,13.45-44.97,39.16-7.04,23.22,12.96,48.53,36.12,77.83,29.59,37.44,66.42,84.03,59.24,146.48-2.06,17.88-6.83,34.89-14.17,50.54-11.7,24.9-27.16,46.04-45.96,62.81-12.41,11.07-24.86,18.81-33.95,24.46-8.28,5.15-13.28,8.25-12.92,10.61.16,1.07,1.35,1.86,3.75,2.47Zm9.52-12.52c9.11-5.66,21.59-13.42,34.04-24.53,18.87-16.84,34.39-38.05,46.12-63.03,7.38-15.72,12.17-32.79,14.24-50.74,7.21-62.72-29.71-109.43-59.39-146.97-23.04-29.15-42.94-54.33-36-77.22,7.7-25.4,28.13-38.69,44.33-38.69,7.04,0,12.79,2.43,17.08,7.23,7.23,8.07,10.09,22.78,8.05,41.4-6.67,60.95-5.48,147.36,81.48,193.78,27.5,14.68,55.91,21.82,86.86,21.82,38.78,0,73.72-11.27,104.57-21.23,22.77-7.35,42.43-13.69,58.09-13.69,12.52,0,25.54,3.49,35.95,28.79,24.41,59.33.77,108.98-15.5,133.29-20.46,30.57-54.92,55.45-76.82,55.45-5.85,0-10.62-1.72-14.16-5.12-25.06-24.01-48.38-39.28-73.39-48.04-21.52-7.54-45.26-10.76-79.36-10.76-36.78,0-75.07,5.96-107.82,16.79-38.99,12.89-63.97,13.89-70.7,13.89-3.17,0-5.67-.19-7.04-.55-2.05-.53-3.14-1.18-3.26-1.93-.29-1.92,5.12-5.29,12.61-9.95Z"/>
  <path class="cls-1" d="m517.79,478.63c-11.91,0-24.98,12.05-29.27,22.87-2.84,7.17-.68,19.43,5.79,32.8,6.09,12.6,14.21,22.28,20.2,24.08.91.28,1.83.41,2.73.41,1,0,2-.17,2.96-.51,7.73-2.7,7.56-7.44,7.17-17.84-.24-6.39-.56-15.15.76-27.19,1.77-16.15-.76-28.46-4.17-32.27-1.09-1.22-2.6-2.35-6.17-2.35Zm9.24,34.5c-1.33,12.12-1,20.92-.77,27.35.39,10.43.53,14.33-6.43,16.75-1.62.56-3.3.59-5.01.08-5.71-1.72-13.55-11.16-19.52-23.5-6.33-13.09-8.48-25.02-5.75-31.9,4.15-10.48,16.77-22.17,28.24-22.17,3.14,0,4.42.95,5.35,1.98,3.25,3.63,5.63,15.58,3.89,31.41Z"/>
  <path class="cls-1" d="m786.52,800.66c2.43.98,3.84,1.77,5.63,2.78.71.4,1.47.83,2.38,1.31,9.14,4.91,16.81,9.9,22.17,14.44,3.03,2.57,5.52,3.82,7.6,3.82,3.05,0,4.82-2.59,6.25-5.02,5.38-9.16,7.27-16.23,9.47-28.62.27-1.51.32-3.64-.95-5.15-1.6-1.92-4.78-2.25-9.44-.96-14.07,3.9-23.56,5.7-35.57,7.98-2.1.4-4.27.81-6.54,1.25-2.32.44-4.07,2.08-4.25,3.97-.08.84.07,2.92,3.24,4.2Zm1.25-6.92c2.27-.44,4.44-.85,6.53-1.25,12.04-2.28,21.55-4.08,35.68-8,1.75-.49,3.27-.73,4.53-.73,1.67,0,2.88.43,3.58,1.27.95,1.14.89,2.86.67,4.1-2.17,12.23-4.03,19.2-9.31,28.19-1.54,2.63-3.01,4.38-5.14,4.38-1.76,0-3.98-1.15-6.77-3.51-5.43-4.6-13.18-9.64-22.4-14.59-.9-.48-1.66-.91-2.36-1.3-1.83-1.03-3.28-1.84-5.78-2.85-1.67-.67-2.56-1.73-2.45-2.89.13-1.31,1.48-2.5,3.22-2.84Z"/>
  <path class="cls-1" d="m582.64,824.08c2.04,0,4.56-.17,7.69-.53,1.35-.15,33.58-3.76,68.14-3.76,13.47,0,25.48.56,35.69,1.66,51.05,5.49,95.22,29.86,116.35,51.57,3.89,3.99,8.53,6.02,13.8,6.02,11.82,0,26.4-10.3,39.98-28.27,23.79-31.47,30.99-91.7,19.2-115.42-3.13-6.3-7.5-9.62-12.64-9.62-.43,0-.86.02-1.3.07-9.33.95-22.28,4.76-38.68,9.57-30.71,9.01-72.76,21.36-118.35,22.09-38.96.64-83.49-14.8-98.64-22.19-4.95-2.42-8.15-3.49-10.37-3.49-4.52,0-4.71,4.3-5.04,11.42-.26,5.66-.61,13.41-3.37,22.27-5.01,16.09-10.69,28.29-14.84,37.2-4.6,9.89-7.38,15.85-5.41,18.95,1.09,1.71,3.5,2.47,7.82,2.47Zm-1.8-21.14c4.16-8.93,9.85-21.15,14.88-37.28,2.79-8.94,3.14-16.74,3.4-22.44.31-6.95.49-10.78,4.37-10.78,2.09,0,5.29,1.09,10.08,3.42,14.9,7.27,58.13,22.27,96.66,22.27.76,0,1.52,0,2.28-.02,45.69-.73,87.79-13.09,118.53-22.12,16.37-4.8,29.29-8.6,38.57-9.55,5.51-.56,9.98,2.54,13.28,9.19,11.71,23.56,4.53,83.42-19.13,114.72-13.46,17.8-27.84,28.01-39.45,28.01-5.09,0-9.57-1.96-13.33-5.82-21.22-21.79-65.54-46.25-116.76-51.77-10.23-1.1-22.27-1.66-35.76-1.66-34.6,0-66.85,3.61-68.21,3.77-3.1.35-5.59.53-7.61.53-4.01,0-6.32-.69-7.26-2.16-1.78-2.79.95-8.63,5.45-18.31Z"/>
  <path class="cls-1" d="m532.96,849.53c2.06,0,4.71-.53,7.46-1.48,31.09-10.79,67.14-16.04,110.22-16.04,53.66,0,106.83,4.92,167.24,64.38,1.73,1.71,4.02,2.57,6.78,2.57h0c16.9,0,48.11-32.4,57.37-51.93.84-1.78,1.76-3.67,2.73-5.65,11.78-24.19,31.49-64.67,11.35-113.64-8.05-19.57-15.56-19.57-22.19-19.57-13.32,0-31.96,6.02-53.56,12.98-31.86,10.28-67.98,21.94-109.1,21.94-35.19,0-63.66-6.47-92.32-20.99-4.44-2.25-8.71-4.7-12.48-6.87-7.55-4.33-13.51-7.76-17.35-7.76-2.99,0-4.47,2.09-4.53,6.39,0,.68.1,1.79.25,3.31,4.1,42.18-12.21,81.56-48.49,117.03-6.34,6.2-9.02,10.65-7.97,13.23.56,1.37,2.15,2.09,4.59,2.09Zm3.84-14.84c23.33-22.82,38.63-47.58,45.45-73.6,5.49-20.92,3.91-37.08,3.24-43.98-.15-1.51-.25-2.6-.24-3.24.06-5.14,2.23-5.74,3.86-5.74,3.66,0,9.85,3.55,17.01,7.67,3.78,2.17,8.06,4.63,12.51,6.88,28.76,14.56,57.33,21.06,92.62,21.06,41.23,0,77.4-11.67,109.31-21.97,21.54-6.95,40.13-12.94,53.35-12.94,6.42,0,13.7,0,21.58,19.15,20.03,48.69.4,89.01-11.33,113.1-.97,1.99-1.89,3.88-2.73,5.66-9.19,19.39-40.09,51.55-56.77,51.55-2.58,0-4.7-.8-6.31-2.38-28.07-27.62-57.12-45.71-88.81-55.31-28.25-8.55-54.46-9.26-78.9-9.26-43.15,0-79.28,5.26-110.44,16.08-2.68.93-5.26,1.45-7.25,1.45-1.5,0-3.41-.29-3.97-1.68-.53-1.3-.22-4.65,7.81-12.5Z"/>
  <path class="cls-1" d="m413.64,0h-1.63c-3.42,11.98-5.81,25.09-7.22,39.5-2.46,25.06-4.64,57.88.49,89.52,3.74,23.06,11.24,33.34,24.32,33.34h0c8.35,0,18.06-4.05,29.3-8.74,7.81-3.26,15.88-6.63,24.52-9.08.83-.23,1.65-.46,2.49-.69,24.58-6.59,52.28-7.53,81.68-2.76,7.89,1.28,15.88,3.49,23.61,5.62,11.27,3.12,22.92,6.34,34.76,6.86,6.42.28,10.98-.37,14.22-1.98,9.44-4.7,4.85-16.46-.01-28.91-2.87-7.36-5.84-14.98-6.33-21.81-2.59-36.26,17.65-69.31,44.4-100.88h-2.05c-26.55,31.52-46.51,64.58-43.9,100.99.5,7.06,3.52,14.79,6.44,22.26,4.79,12.28,8.93,22.88.76,26.95-2.95,1.47-7.41,2.08-13.45,1.82-11.66-.51-23.23-3.71-34.41-6.8-7.77-2.15-15.8-4.37-23.78-5.66-29.61-4.8-57.53-3.86-82.33,2.8-.84.23-1.67.45-2.51.69-8.72,2.47-16.84,5.86-24.69,9.14-11.08,4.63-20.66,8.62-28.7,8.63-12.17,0-19.2-9.88-22.79-32.03-5.1-31.46-2.94-64.15-.48-89.12,1.42-14.49,3.84-27.65,7.31-39.66Z"/>
  <path class="cls-1" d="m393.73,621.88c-1.48-1.35-2.81-2-4.06-2-3.11,0-5.29,3.95-8.58,9.94-3.41,6.2-8.08,14.69-16.16,23.29l-2.37,2.52c-9.26,9.83-13.49,14.32-12.46,16.73.47,1.1,1.9,1.58,4.64,1.58,2.33,0,5.75-.34,11.45-1.14,2.35-.33,4.75-.5,7.13-.5,19.26,0,35.3,10.81,47.02,18.7,6.86,4.62,12.28,8.27,16.16,8.27,1.63,0,2.96-.65,3.96-1.93,12.29-15.8-30.7-60.89-46.73-75.44Zm45.86,74.76c-.79,1.01-1.8,1.5-3.09,1.5-3.54,0-8.84-3.57-15.54-8.08-11.84-7.97-28.04-18.89-47.64-18.89-2.43,0-4.88.17-7.28.51-5.65.79-9.03,1.13-11.3,1.13-2.14,0-3.36-.31-3.62-.91-.75-1.74,4.42-7.22,12.25-15.52l2.37-2.52c8.18-8.7,12.89-17.26,16.33-23.51,3.1-5.64,5.15-9.36,7.61-9.36.96,0,2.04.56,3.31,1.71,19.91,18.08,57.5,59.93,46.6,73.94Z"/>
  <path class="cls-1" d="m394.05,640.41c-7.77,0-17.78,12.26-17.83,18.09-.02,2.38,1.46,3.78,4.05,3.82,11.45.21,23.55,7.47,32.38,12.77,5.24,3.14,9.02,5.41,11.26,5.41h0c.71,0,1.28-.22,1.69-.67.51-.55.72-1.4.63-2.58-.82-10.68-21.09-32.08-29.31-36.2-.87-.43-1.83-.65-2.87-.65Zm30.64,36.97c.07.94-.11,1.28-.22,1.41-.04.04-.15.17-.55.17h0c-1.81,0-5.82-2.41-10.46-5.19-8.98-5.39-21.29-12.78-33.15-12.99-1.76-.03-2.54-.73-2.53-2.26.05-5.19,9.35-16.55,16.28-16.55.79,0,1.53.16,2.18.49,8.86,4.43,27.72,25.24,28.46,34.92Z"/>
  <path class="cls-1" d="m366.58,438.85h0c1.91,0,3.43-2.71,4.92-8.77,5.57-22.68,23.99-52.71,52.57-68.68,28.92-16.16,48.2-20.35,58.56-22.61,5.14-1.12,7.73-1.68,8.35-3.04.24-.52.16-1.13-.23-1.85-1.99-3.65-37.83-23.72-89.36-27.88l-2.17-.18c-4.64-.38-8.66-.71-12.51-.71-13.44,0-24.29,3.77-49.59,25.16-4,3.38-8.09,6.52-12.04,9.55-12.24,9.39-22.81,17.5-22.12,26.7.53,7.07,7.52,14.08,22,22.07,16.03,8.85,25.8,26.39,32.27,38.01,4.1,7.36,6.8,12.22,9.36,12.22Zm-41.31-50.81c-14.07-7.76-21.16-14.81-21.66-21.54-.66-8.84,9.77-16.85,21.86-26.12,3.96-3.04,8.06-6.18,12.06-9.57,25.14-21.27,35.88-25.01,49.16-25.01,3.82,0,7.82.33,12.45.71l2.17.18c50.35,4.07,86.94,24.07,88.83,27.53.38.7.3,1.05.21,1.26-.48,1.05-3.27,1.66-7.88,2.66-10.39,2.26-29.74,6.47-58.75,22.67-28.75,16.06-47.28,46.28-52.89,69.1-1.37,5.56-2.76,8.26-4.27,8.26h0c-2.17,0-5.09-5.24-8.78-11.88-6.5-11.68-16.32-29.32-32.53-38.26Z"/>
  <path class="cls-1" d="m370.77,477c1.93,0,3.26-2.32,4.2-7.29,5.77-30.59,18.26-73.93,60.02-97.05,12.9-7.15,27.48-12.81,44.55-17.31,3.44-.91,7.11-3.39,10.67-5.78,4.6-3.1,9.36-6.31,13.76-6.31.51,0,1.01.04,1.49.13,2.46.44,4.3,1.86,6.08,3.24,2,1.55,3.9,3.02,6.5,3.02.99,0,1.99-.21,3.08-.64,1.87-.74,2.84-2.18,3.78-3.58,1.33-1.98,2.57-3.84,6.34-3.52,3.74.32,5.76,3.18,7.9,6.2,1.5,2.12,3.04,4.31,5.23,5.52,1.6.89,4.49,1.85,7.04,1.85,1.78,0,3.04-.47,3.75-1.4.67-.89.79-2.15.34-3.74-1.45-5.24-12.68-10.13-20.11-13.37-2.19-.96-4.09-1.78-5.31-2.43-11.06-5.86-22.09-10.83-31.42-14.92-39.34-17.23-75.21-27.74-109.64-32.14-3.88-.49-7.24-.73-10.27-.73-16.95,0-30.09,7.42-56.26,31.77-6.42,5.97-13.02,11.11-19.41,16.07-14.31,11.11-25.61,19.89-25.33,30.94.21,8.72,7.78,18,23.8,29.23,25.79,18.07,42.92,45.51,54.26,63.67,6.98,11.19,11.6,18.58,14.95,18.58Zm-68.83-82.8c-15.83-11.09-23.3-20.21-23.51-28.7-.26-10.71,10.92-19.4,25.08-30.4,6.4-4.97,13.02-10.11,19.46-16.11,26.02-24.21,39.05-31.59,55.8-31.59,3.01,0,6.34.24,10.19.73,34.36,4.39,70.17,14.88,109.45,32.09,9.32,4.08,20.34,9.04,31.38,14.89,1.24.66,3.15,1.49,5.35,2.45,7.31,3.19,18.36,8.01,19.73,12.94.39,1.39.31,2.45-.23,3.16-.71.94-2.14,1.14-3.22,1.14-2.32,0-5.13-.89-6.71-1.77-2.06-1.14-3.56-3.27-5.01-5.32-2.13-3.02-4.34-6.14-8.39-6.48-4.18-.37-5.58,1.77-6.95,3.81-.92,1.37-1.79,2.67-3.47,3.33-1.01.4-1.94.59-2.84.59-2.38,0-4.19-1.4-6.1-2.88-1.84-1.43-3.75-2.9-6.37-3.37-.52-.09-1.06-.14-1.61-.14-4.6,0-9.44,3.27-14.13,6.43-3.67,2.48-7.14,4.81-10.47,5.69-17.13,4.52-31.75,10.2-44.71,17.37-42.01,23.25-54.56,66.79-60.35,97.51-.86,4.54-2.02,6.75-3.54,6.75-2.99,0-7.77-7.66-14.39-18.27-11.36-18.21-28.54-45.72-54.44-63.87Z"/>
  <path class="cls-1" d="m452.79,755.83c15.18-1.73,29.49-12.17,36.45-26.61,6.36-13.18,9.8-35.53-9.92-67.18-8.47-13.59-17.7-27.31-26.63-40.58-25.53-37.94-49.64-73.78-59.6-109.73-11.26-40.67-2.22-74.21,28.46-105.58,26.56-27.16,61.68-42.73,96.33-42.73,26.04,0,49.27,9.17,65.42,25.82,17.74,18.3,26.61,45.07,25.64,77.41-.22,7.51-.58,15.27-.96,23.48-1.34,29.2-2.86,62.29,1.85,89.83,5.42,31.66,18.27,51.22,39.28,59.79,11.25,4.59,21.91,6.91,31.69,6.91,17.79,0,32.92-7.77,43.77-22.47,18.45-25,22.88-67.8,11-106.52-25.47-83.06-86.69-132.65-177.2-185.75-68.75-40.33-126.82-52.78-179.34-60.23-3.92-.56-7.64-.84-11.08-.84-21.93,0-32.37,11.18-45.58,25.33-5.08,5.44-10.32,11.05-16.84,16.79-7.5,6.6-14.03,10.62-19.8,14.17-9.25,5.69-17.24,10.61-26.03,23.76-17.45,26.11,5.9,42.13,30.62,59.09,13.06,8.96,26.57,18.23,33.8,29.19,45.47,68.96,27.12,142.51-5.21,188.36-9.24,13.11-22.74,25.48-37.03,38.58-17.48,16.02-35.54,32.58-45.88,51.08-4.45,7.96-5.71,13.36-3.86,16.52,1.35,2.31,4.34,3.43,9.13,3.43h0c8.52,0,22.07-3.54,37.76-7.63,22-5.74,49.38-12.89,73.57-12.89,12.82,0,23.81,2.04,32.66,6.08,8.82,4.02,16.28,9.82,23.49,15.44,11.87,9.24,23.08,17.96,38.91,17.96,1.67,0,3.38-.1,5.09-.29Zm-67.23-33.72c-9.06-4.13-19.83-6.13-32.93-6.13-24.27,0-51.7,7.16-73.74,12.91-15.64,4.08-29.16,7.61-37.6,7.61h0c-4.54,0-7.34-1.01-8.56-3.1-1.72-2.93-.45-8.12,3.87-15.85,10.28-18.4,28.31-34.93,45.75-50.91,14.32-13.12,27.84-25.52,37.12-38.68,18.95-26.87,30.14-57.52,32.35-88.62,2.52-35.56-6.6-69.37-27.13-100.49-7.3-11.07-20.86-20.38-33.98-29.38-24.44-16.77-47.53-32.61-30.44-58.17,8.71-13.03,16.64-17.91,25.83-23.57,5.79-3.56,12.35-7.6,19.89-14.24,6.54-5.76,11.8-11.39,16.89-16.84,13.1-14.03,23.46-25.12,45.1-25.12,3.41,0,7.1.28,10.99.83,52.45,7.44,110.44,19.87,179.09,60.14,90.37,53.01,151.49,102.51,176.9,185.37,11.82,38.52,7.43,81.09-10.9,105.93-10.72,14.52-25.67,22.2-43.24,22.2-9.7,0-20.28-2.31-31.44-6.86-20.78-8.48-33.49-27.87-38.87-59.28-4.7-27.47-3.18-60.52-1.84-89.69.38-8.22.73-15.97.96-23.49.97-32.52-7.96-59.46-25.83-77.89-16.27-16.78-39.67-26.03-65.9-26.03-34.83,0-70.12,15.65-96.81,42.93-16.3,16.66-26.36,33.85-30.77,52.56-3.93,16.7-3.23,34.25,2.14,53.66,9.99,36.06,34.13,71.94,59.69,109.93,8.93,13.26,18.15,26.98,26.61,40.56,19.56,31.4,16.17,53.51,9.89,66.54-6.87,14.23-20.97,24.53-35.93,26.23-1.69.19-3.38.29-5.02.29-15.61,0-26.73-8.66-38.5-17.82-7.25-5.64-14.74-11.47-23.63-15.52Z"/>
  <path class="cls-1" d="m467.34,728.27c5.82-4.24,9.23-10.17,10.13-17.63,2.65-21.86-16.71-53.73-34.1-74.38-21.7-25.77-43.22-53.29-53.76-79.91-.52-1.31-1.31-5.02-2.32-9.71-3.39-15.82-9.06-42.29-17.27-42.29-.76,0-1.53.23-2.29.68-3.41,2.03-4.42,6.01-3.08,12.17,1.1,5.04,3.61,10.86,5.82,15.99,2.34,5.43,4.37,10.12,4.34,12.78-.09,6.86-3.29,9.89-6.38,12.82-2.41,2.29-4.91,4.65-5.81,8.75-1.16,5.29,1.02,9.26,3.13,13.11,1.95,3.55,3.96,7.22,3.32,11.95-1.18,8.68-28.65,40.01-52.89,67.64-20.06,22.87-37.38,42.62-37.09,46.4.02.29.13.51.32.67,1.66,1.38,4.67,2.05,9.22,2.05h0c7.17,0,17.15-1.6,28.7-3.46,14.01-2.25,29.89-4.8,43.67-4.8,10.76,0,18.82,1.53,24.62,4.69,3.16,1.72,6.67,3.76,10.39,5.92,16.56,9.63,37.16,21.62,54.6,21.62,6.47,0,12.1-1.71,16.72-5.07Zm-81.4-23.06c-5.91-3.21-14.06-4.77-24.94-4.77-13.83,0-29.74,2.55-43.77,4.81-11.53,1.85-21.48,3.45-28.59,3.45h0c-4.38,0-7.26-.62-8.79-1.89-.02-.02-.07-.06-.08-.21-.27-3.5,17.79-24.1,36.93-45.91,24.3-27.7,51.85-59.11,53.05-67.99.67-4.95-1.4-8.72-3.4-12.36-2.14-3.91-4.17-7.6-3.07-12.64.85-3.9,3.16-6.09,5.61-8.41,3.2-3.03,6.5-6.15,6.59-13.29.04-2.8-2.02-7.55-4.39-13.06-2.2-5.1-4.7-10.89-5.78-15.87-1.27-5.84-.36-9.59,2.77-11.46.65-.39,1.31-.59,1.95-.59,7.67,0,13.49,27.17,16.62,41.76,1.05,4.9,1.81,8.45,2.35,9.82,10.57,26.7,32.14,54.27,53.87,80.09,17.3,20.55,36.57,52.22,33.94,73.87-.88,7.27-4.2,13.05-9.86,17.17-4.51,3.28-10,4.94-16.33,4.94-17.26,0-37.78-11.94-54.27-21.53-3.72-2.17-7.24-4.21-10.41-5.93Z"/>
  <path class="cls-1" d="m459.75,700.39c1.98-18.3-17.61-47.02-27.4-58.07-16.9-19.05-28.67-35.28-36.47-46.02-7.73-10.66-11.99-16.53-14.75-16.53-1.89,0-2.93,2.45-3.57,8.46-4.85,45.25-34.08,69.75-51.55,84.39-7.65,6.41-12.7,10.65-12.91,14.14-.06,1,.3,1.92,1.06,2.74,1.59,1.7,4.12,2.49,7.95,2.49,4.31,0,9.75-1,16.05-2.16,8.17-1.5,17.44-3.2,26.93-3.2,12.91,0,23.33,3.22,31.86,9.85,12,9.33,29.78,19.3,43.68,19.3h0c5.01,0,9.31-1.28,12.77-3.8,3.67-2.67,5.81-6.58,6.35-11.6Zm-19.12,14.73h0c-13.73,0-31.36-9.9-43.27-19.16-8.65-6.72-19.2-9.99-32.27-9.99-9.55,0-18.85,1.71-27.05,3.21-6.27,1.15-11.68,2.14-15.93,2.14-3.63,0-6.01-.72-7.46-2.28-.64-.69-.93-1.42-.88-2.24.19-3.21,5.43-7.59,12.68-13.67,17.54-14.7,46.9-39.31,51.78-84.83.58-5.44,1.48-7.86,2.91-7.86,2.42,0,6.86,6.12,14.21,16.25,7.8,10.75,19.59,27,36.51,46.07,9.73,10.97,29.2,39.47,27.24,57.55-.52,4.83-2.57,8.57-6.08,11.13-3.35,2.43-7.51,3.67-12.38,3.67Z"/>
  <path class="cls-1" d="m649.44,517.54c-2.29,34.76,7.69,58.68,17.78,69.48,4.62,4.94,9.69,7.66,14.27,7.66h0c6.46,0,11.32-5.09,13.68-14.33,15.17-59.5-36.47-122.21-42.81-127.45-1.83-1.51-3.09-1.7-3.91-.81-1.48,1.62-1.02,6.92-.18,16.56.99,11.39,2.5,28.61,1.16,48.88Zm-.16-64.69c.11-.12.23-.18.39-.18.31,0,.9.19,1.99,1.09,6.28,5.19,57.47,67.36,42.44,126.32-2.22,8.7-6.69,13.49-12.6,13.49h0c-4.27,0-9.05-2.6-13.46-7.31-9.94-10.63-19.75-34.24-17.49-68.64,1.34-20.35-.16-37.62-1.16-49.05-.73-8.39-1.26-14.45-.11-15.71Z"/>
  <path class="cls-1" d="m920.19,126.74c-17.36,0-36.6,3.28-56.97,6.76-24.33,4.15-49.49,8.45-76.9,8.45-2.02,0-4.01-.02-5.9-.07-1.64-.04-3.25-.08-4.83-.13-4.15-.11-8.06-.22-11.83-.22-23.62,0-38.24,4.82-47.88,30.23-6.09,16.07-13,34.28-29.57,46.02-4.69,3.32-9.38,6.16-13.52,8.66-9.59,5.8-17.17,10.38-17.45,16.71-.26,5.82,5.62,12.81,19.05,22.68,12.89,9.47,23.5,14.07,32.42,14.07.81,0,1.62-.04,2.4-.11,12.96-1.21,21.66-11.93,32.67-25.51,5.01-6.17,10.68-13.17,17.33-19.82,28.83-28.86,64.26-49.91,102.46-60.88,16.11-4.62,32.03-6.97,47.33-6.97,37.78,0,66.91,13.68,91.02,29.48v-.8c-24.11-15.76-53.25-29.35-91.02-29.35-15.35,0-31.34,2.35-47.51,7-38.31,11-73.84,32.11-102.75,61.05-6.68,6.68-12.36,13.69-17.37,19.88-10.91,13.45-19.53,24.08-32.21,25.26-.77.07-1.55.11-2.34.11-8.78,0-19.25-4.56-32.03-13.94-13.24-9.73-19.03-16.55-18.78-22.12.27-5.97,7.71-10.47,17.13-16.17,4.15-2.51,8.85-5.35,13.56-8.69,16.74-11.86,23.68-30.17,29.81-46.33,9.5-25.05,23.94-29.8,47.26-29.8,3.76,0,7.67.11,11.81.22,1.59.04,3.2.09,4.83.13,1.9.05,3.89.07,5.92.07,27.47,0,52.66-4.3,77.01-8.46,20.34-3.47,39.55-6.75,56.85-6.75,10.03,0,18.79,1.11,26.8,3.4,17.21,4.92,34.83,12.99,53.02,22.4v-.75c-18.11-9.36-35.67-17.38-52.83-22.29-8.07-2.31-16.89-3.43-26.98-3.43Z"/>
  <path class="cls-1" d="m632.25,515.53c-2.58,33.72,4.08,61,18.73,76.84,7.66,8.28,17.08,12.84,26.51,12.84h0c13.45,0,24.21-9.35,27.41-23.83,9.35-42.3-5.12-80.36-18.9-104.84-16.2-28.77-36.92-49.11-46.9-55.77-3.64-2.43-6.22-3.94-7.78-3.94-.57,0-1.03.19-1.36.58-1.28,1.46-.76,5.57.28,13.76,1.85,14.5,5.28,41.49,2.01,84.37Zm-1.79-97.69c.21-.24.48-.35.86-.35,1.39,0,3.97,1.53,7.41,3.83,22.53,15.03,82.39,83.59,65.52,159.91-3.13,14.16-13.63,23.31-26.76,23.31-9.25,0-18.49-4.49-26.03-12.63-14.52-15.69-21.11-42.8-18.55-76.33,3.28-42.94-.16-69.98-2.01-84.5-.95-7.49-1.53-12.01-.45-13.24Z"/>
  <path class="cls-1" d="m619.48,517.71c-2.56,41.97,5.47,75.11,22.59,93.34,8.86,9.43,19.61,14.41,31.1,14.41h0c21.97,0,40.59-17.8,46.32-44.28,8.46-39.08,1.19-77.54-21.61-114.32-23.1-37.27-55.07-61.36-72.08-72.41-8.66-5.63-12.37-7.97-13.79-6.26-1.17,1.41-.41,5.46,1.11,13.51,3.3,17.44,10.15,53.72,6.35,116.02Zm-6.95-129.1c.18-.22.43-.32.79-.32,1.79,0,5.68,2.53,12.12,6.72,56.65,36.81,110.94,105.01,93.4,186.03-5.66,26.18-24.02,43.76-45.67,43.76-11.3,0-21.88-4.91-30.61-14.2-17-18.09-24.96-51.06-22.41-92.84,3.8-62.38-3.06-98.72-6.36-116.18-1.39-7.35-2.23-11.78-1.26-12.96Z"/>
  <path class="cls-1" d="m364,378.29c6.29,0,10.79-6.06,15.6-15.17,8.42-15.92,25.99-23.61,35.44-27.75,4.78-2.09,6.57-2.88,6.34-4.19-.19-1.1-1.42-1.57-7.96-2.02-19.66-1.33-63.79,17.44-68.88,31.58-1.18,3.27-.31,6.24,2.52,8.59,7.58,6.28,12.65,8.96,16.93,8.96h0Zm-17.99-17.02c4.65-12.92,45.66-30.62,65.32-30.62.69,0,1.35.02,1.99.06,3.85.26,5.55.54,6.25.76-.83.58-3.02,1.53-5.15,2.47-9.62,4.21-27.51,12.05-36.19,28.45-5.46,10.32-9.45,14.34-14.23,14.34-3.89,0-8.66-2.57-15.94-8.6-2.34-1.94-3.01-4.18-2.05-6.86Z"/>
  <path class="cls-1" d="m383.32,377.49c15.12-27.57,42.75-37.2,65.13-42.5,2.15-.51,2.35-1.61,2.28-2.22-.52-4.49-21.48-13.09-52.76-13.09-3.53,0-7.14.11-10.73.33-14.29.87-48,20.82-60.11,35.59-3.15,3.84-4.57,7.03-4.24,9.48.83,6.13,6.29,8.85,12.61,12,6.68,3.33,14.26,7.11,17.95,15.92,2.15,5.13,4.97,7.73,8.38,7.73,5.8,0,13.02-7.82,21.48-23.23Zm-28.84,15.07c-3.85-9.19-11.62-13.06-18.48-16.48-6.04-3.01-11.25-5.61-12.01-11.16-.29-2.11,1.09-5.09,3.99-8.63,11.97-14.6,45.24-34.33,59.32-35.19,3.57-.22,7.16-.33,10.66-.33,30.74,0,51.24,8.51,51.66,12.11.07.57-.87.88-1.43,1.01-22.6,5.36-50.52,15.09-65.85,43.05-12.74,23.23-22.31,28.86-27.86,15.61Z"/>
  <path class="cls-1" d="m675.42,568.06h0c1.17,0,2.2-.81,3.05-2.42,4.32-8.11,4.24-36.2-7.23-53.29-1.49-2.22-3.65-1.93-5.27.87-4.31,7.43-6.12,31.03,5.62,51.62,1.22,2.14,2.51,3.22,3.83,3.22Zm-8.1-54.06c.57-.99,1.19-1.58,1.64-1.58.4,0,.8.5,1,.79,10.98,16.36,11.21,44.06,7.15,51.69-.55,1.03-1.15,1.6-1.68,1.6-.69,0-1.6-.89-2.48-2.44-11.28-19.79-9.66-43.11-5.62-50.07Z"/>
  <path class="cls-1" d="m819.82,636.24c1.58,2.29,5.45,3.26,12.93,3.26,4.68,0,10.26-.37,16.72-.81,8-.53,17.07-1.14,26.45-1.14,29.69,0,49.7,6.31,63.05,19.92,12.41,9.56,19.25,25.13,25.29,38.88,7.34,16.71,13.68,31.14,27.68,31.14,1.48,0,3.05-.17,4.67-.5,1.07-.22,2.21-.51,3.38-.87v-1.16c-1.25.4-2.47.71-3.61.95-1.54.32-3.03.48-4.44.48-13.27,0-19.48-14.12-26.66-30.47-6.09-13.87-13-29.59-25.58-39.26-13.52-13.78-33.78-20.2-63.79-20.2-9.42,0-18.5.61-26.52,1.14-6.44.43-12.01.8-16.65.8-6.89,0-10.71-.89-12.02-2.78-.72-1.04-.73-2.45-.04-4.3,14.13-37.79,25.95-85.63,24.81-100.37-2-25.8-13.33-50.17-24.29-73.75-13.4-28.83-26.06-56.05-18.02-78.76,11.18-31.56,62.24-86.34,89.9-90.12,1.32-.18,2.81-.27,4.42-.27,21.54,0,59.48,15.43,102.49,40.95v-1.29c-42.95-25.42-80.87-40.78-102.49-40.78-1.66,0-3.2.09-4.57.28-27.96,3.82-79.52,59.04-90.79,90.85-8.2,23.13,4.56,50.56,18.06,79.6,10.92,23.48,22.2,47.77,24.19,73.36,1,12.91-9.59,59.35-24.74,99.89-.83,2.22-.78,3.97.16,5.33Z"/>
  <path class="cls-1" d="m925.09,987.97c-1.27,0-3.41.14-6.13.31-4.57.3-10.83.7-17.05.7-15.42,0-23.51-2.54-24.02-7.55-.77-7.53,17.11-18.72,28.95-26.13,4.7-2.94,8.76-5.49,10.65-7.14,14.74-12.93,28.34-29.03,40.45-47.88,8.01-12.48,13.91-25.94,20.16-40.18,4.7-10.72,12.17-21.85,21.91-29.54v-.83c-10.03,7.77-17.72,19.14-22.52,30.1-6.23,14.22-12.12,27.65-20.1,40.09-12.07,18.79-25.64,34.85-40.33,47.73-1.85,1.63-5.89,4.15-10.57,7.08-12.69,7.94-30.07,18.82-29.25,26.77.56,5.48,8.64,8.14,24.68,8.14,6.24,0,12.52-.4,17.1-.7,2.7-.17,4.84-.31,6.09-.31,23.36,0,44.12,3.75,62.91,11.36h1.8c-19.27-8.07-40.62-12.03-64.71-12.03Z"/>
  <path class="cls-1" d="m496.09,63.58c2.98,0,6.42-.44,10.54-1.36,4.1-.91,7.96-1.77,11.47-2.24,5.94-.8,11.69-1.13,16.81-1.43,5.83-.34,11.07-1.91,16.02-4.8,20.67-12.09,29.31-36.83,32.06-46.91.66-2.43,1.32-4.68,1.97-6.84h-.7c-.63,2.11-1.27,4.3-1.92,6.66-2.73,10-11.3,34.54-31.76,46.51-4.86,2.84-10,4.38-15.76,4.71-5.09.29-10.85.63-16.82,1.43-3.53.48-7.41,1.34-11.52,2.25-4.07.9-7.47,1.34-10.4,1.34-4.91,0-8.33-1.26-10.45-3.86-3.14-3.84-3.59-10.71-1.41-21.63l.36-1.78c2.96-15.02,8.05-26.6,16.07-35.64h-.88c-7.87,9.06-12.9,20.59-15.84,35.51l-.36,1.78c-2.22,11.13-1.73,18.18,1.55,22.18,2.26,2.76,5.85,4.1,10.97,4.1Z"/>
  <path class="cls-1" d="m920.19,142.08c-16.06,0-34.67,3.18-54.39,6.54-24.96,4.26-50.76,8.67-79.48,8.67-2.1,0-4.19-.02-6.26-.07l-4.89-.13c-4.03-.11-7.84-.21-11.42-.21-31.1,0-32.64,17.11-34.27,35.23-.9,9.94-1.82,20.21-7.29,28.95-1.95,3.12-7.2,7.06-12.75,11.24-11.83,8.89-25.23,18.98-18.8,28.41,2.77,4.06,6.1,6.12,9.91,6.12,2.08,0,4.34-.62,6.71-1.85,10.49-5.42,21.71-21.46,30.72-34.35,5.12-7.31,9.54-13.63,11.95-15.08,2.53-1.51,5.36-1.72,7.79-1.72.94,0,1.89.03,2.84.07.97.03,1.95.07,2.92.07,3.66,0,7.52-.44,11-3.61,4.21-3.83,4.74-8.79,5.24-13.59.46-4.31.9-8.39,3.76-11.82,8.65-10.35,39.02-17.59,59.11-22.38,5.91-1.41,11.02-2.63,14.83-3.72,17.48-5.02,34.82-7.57,51.55-7.57,37.12,0,66.8,12.18,91.02,26.75v-1.3c-24.24-14.5-53.92-26.56-91.02-26.56-16.83,0-34.27,2.56-51.85,7.61-3.78,1.09-8.88,2.3-14.78,3.71-21.44,5.11-50.81,12.11-59.7,22.75-3.08,3.69-3.56,8.12-4.01,12.41-.51,4.8-1,9.34-4.89,12.89-3.21,2.92-6.83,3.33-10.26,3.33-.96,0-1.92-.03-2.88-.07-.96-.03-1.93-.07-2.88-.07-2.58,0-5.6.22-8.36,1.88-2.62,1.57-6.89,7.67-12.29,15.39-8.47,12.11-20.08,28.71-30.32,34-6.25,3.22-11.19,1.96-15.2-3.91-5.83-8.56,7.12-18.31,18.55-26.9,5.89-4.43,10.97-8.25,13.03-11.54,5.61-8.96,6.55-19.37,7.45-29.44,1.65-18.36,3.08-34.22,33.17-34.22,3.56,0,7.36.1,11.39.21l4.89.13c2.08.05,4.18.07,6.29.07,28.81,0,54.66-4.42,79.68-8.69,19.66-3.36,38.23-6.53,54.19-6.53,8.54,0,15.89.91,22.47,2.79,18.15,5.19,37.3,14.4,57.34,25.04v-1.26c-19.9-10.55-38.95-19.68-57.04-24.85-6.68-1.91-14.13-2.84-22.77-2.84Z"/>
  <path class="cls-1" d="m500.38,40.13c1.71,3.32,5.39,5,10.94,5,1.45,0,3.04-.12,4.73-.35,6.51-.88,12.58-1.23,17.98-1.54,1.6-.09,3.09-.33,4.54-.74,1.61-.46,3.12-1.11,4.62-1.98,12.01-7.02,26.2-27.71,26.67-40.51h-1.11c-.49,12.29-14.61,32.82-26.12,39.55-1.42.83-2.85,1.44-4.37,1.87-1.37.39-2.78.62-4.34.71-5.38.31-11.47.66-18.02,1.55-7.67,1.04-12.63-.35-14.54-4.06-2.59-5.03.49-14.73,8.03-25.32,4.1-5.75,9.65-10.42,16.95-14.3h-2.32c-6.58,3.76-11.67,8.23-15.54,13.65-7.91,11.09-10.94,20.99-8.12,26.47Z"/>
  <path class="cls-1" d="m853.35,607.3c4.13,5.94,12.85,6.61,24.92,7.53,1.31.1,2.66.2,4.04.32,3.82.31,7.81.45,12.04.59,19.63.67,41.87,1.43,61.96,19.75l.24.22c11.14,9.76,17.77,26.96,23.62,42.14,5.89,15.29,10.98,28.49,19.07,28.49.25,0,.51-.05.76-.08v-.67c-.25.03-.51.08-.76.08-7.63,0-12.64-13.01-18.45-28.06-5.88-15.25-12.54-32.53-23.8-42.4l-.24-.21c-20.26-18.48-42.64-19.24-62.38-19.92-4.22-.15-8.21-.28-12.01-.59-1.39-.11-2.74-.22-4.05-.32-11.89-.91-20.48-1.57-24.42-7.25-3.74-5.38-3.21-15.46,1.72-32.67,4.56-15.93,6.25-30.48,5.16-44.49-2.21-28.56-14.14-54.21-25.67-79.03-12.04-25.9-23.41-50.37-17.47-67.17,9.91-27.97,57.73-77.35,77.53-80.05.44-.06,1.21-.13,2.35-.13,16.54,0,53.96,13.78,102.49,43.53v-.78c-48.48-29.67-85.9-43.41-102.49-43.41-1.18,0-1.98.07-2.44.14-19.95,2.72-68.11,52.37-78.07,80.48-6.04,17.06,5.39,41.64,17.5,67.69,11.5,24.75,23.4,50.34,25.6,78.78,1.08,13.93-.6,28.41-5.14,44.26-5.06,17.65-5.54,27.59-1.62,33.23Z"/>
  <path class="cls-1" d="m448.55,808.25c33.05-3.77,72.41-43.09,82.97-73.13,18.32-52.16-14.25-94.16-45.75-134.78-30.4-39.2-59.12-76.23-45.16-121.31,12.17-39.28,51.46-60.47,82.26-60.47,16.6,0,30.95,5.89,40.43,16.6,11.25,12.71,15.67,32.02,12.78,55.84-9.92,81.85-12.87,171.38,78.28,197.77,10.46,3.03,20.79,4.56,30.69,4.56,38.38,0,62.87-22.01,76.66-40.47,26.44-35.4,35.62-88.35,22.85-131.76-10.84-36.81-32.16-72.51-65.19-109.13-49.09-54.44-115.95-101.25-204.39-143.1l-3.83-1.81c-37.21-17.62-75.68-35.84-116.19-45.88-2.4-.6-5.06-1.3-7.9-2.06-12.51-3.33-28.09-7.47-41.45-7.47-5.35,0-9.98.69-13.77,2.05-5.77,2.07-9.01,6.02-12.16,9.84-2.34,2.85-4.77,5.8-8.23,7.91-2.25,1.37-6.63,3.06-11.26,4.86-7.49,2.9-15.24,5.89-17.7,8.77-4.73,5.55-3.43,8.89-2.17,12.13.9,2.32,1.76,4.52.65,7.77l-.88,2.57q-6.73,19.8-22.23,24.29c-3,.87-6.72,1.95-11.13,3.35-12.77,4.07-18.01,10.34-23.08,16.4-3.9,4.66-7.58,9.06-14.51,12.63-.19-.02-.39-.02-.61-.02-8,0-68.61,3.99-73.26,18.91-1.25,4.02,1.47,8.39,8.1,12.98,8.3,5.75,14.59,6.41,18.6,6.41,1.96,0,3.72-.17,5.43-.34,1.46-.14,2.85-.28,4.16-.28,4.88,0,9.81,1.38,16.57,18.07,1.66,4.11,2.95,7.47,4.01,10.26,5.24,13.73,5.41,13.91,18.72,19.6,3.3,1.41,7.41,3.17,12.63,5.58,17.13,7.91,20.65,16.9,25.09,28.27,2.35,6.01,5.01,12.82,10.05,20.48,5.4,8.2,11.73,14.8,17.85,21.18,10.86,11.31,21.11,21.99,24.37,39.84,5.65,30.9-11.11,60.42-30.06,87.71-9.19,13.23-28.08,28.64-48.08,44.95-33.96,27.69-72.45,59.08-72.59,88.16-.08,16.6,4.18,29.34,12.66,37.86,9.24,9.29,23.27,13.8,42.91,13.8,28.47,0,63.47-9.61,94.35-18.09,24.31-6.68,45.3-12.44,58.73-12.44,3.03,0,5.61.31,7.65.92,12.94,3.85,23.21,12.07,33.13,20.02,13.17,10.55,25.61,20.51,43.41,20.51,1.82,0,3.68-.11,5.55-.32Zm-81.65-41.71c-2.21-.66-4.86-.98-8.09-.98-13.63,0-34.72,5.79-59.14,12.5-30.79,8.45-65.68,18.03-93.94,18.04-19.2,0-32.88-4.36-41.81-13.34-8.17-8.22-12.28-20.59-12.2-36.76.13-28.34,38.32-59.48,72.02-86.96,20.09-16.38,39.06-31.85,48.37-45.26,19.15-27.57,36.07-57.41,30.31-88.88-3.35-18.3-13.76-29.15-24.78-40.63-6.08-6.33-12.36-12.88-17.68-20.96-4.95-7.52-7.58-14.25-9.9-20.19-4.57-11.7-8.18-20.94-25.89-29.12-5.25-2.42-9.36-4.18-12.67-5.6q-12.83-5.49-17.88-18.73c-1.07-2.8-2.35-6.17-4.02-10.29-6.45-15.93-11.49-19.04-18.01-19.04-1.39,0-2.8.14-4.31.28-1.67.16-3.4.33-5.28.33-4.12,0-9.86-.7-17.72-6.14-6.01-4.16-8.53-7.94-7.5-11.23,4.04-12.97,60.54-17.82,71.77-17.82.27,0,.45,0,.54.02l.18-.72.34.68c7.38-3.73,11.38-8.52,15.25-13.15,5.15-6.16,10.01-11.98,22.36-15.91,4.39-1.4,8.11-2.48,11.09-3.34,16.13-4.67,16.35-4.91,23.27-25.29l.87-2.57c1.29-3.79.25-6.47-.67-8.84-1.19-3.06-2.22-5.71,1.9-10.55,2.2-2.58,10.1-5.64,17.08-8.33,4.7-1.82,9.14-3.54,11.51-4.98,3.69-2.25,6.2-5.3,8.62-8.25,3.15-3.83,6.12-7.44,11.48-9.37,3.62-1.3,8.08-1.96,13.25-1.96,13.16,0,28.62,4.11,41.05,7.42,2.85.76,5.51,1.47,7.92,2.06,40.36,10.01,78.76,28.19,115.9,45.77l3.83,1.81c88.25,41.76,154.95,88.45,203.9,142.74,32.87,36.45,54.08,71.95,64.85,108.53,12.65,42.96,3.56,95.36-22.6,130.39-13.58,18.18-37.69,39.84-75.42,39.85-9.76,0-19.94-1.51-30.26-4.5-89.99-26.05-87.02-114.88-77.17-196.09,2.94-24.27-1.61-44-13.16-57.05-9.77-11.04-24.54-17.12-41.59-17.12-31.35,0-71.35,21.58-83.74,61.57-14.2,45.85,16.11,84.93,45.41,122.72,31.24,40.29,63.55,81.95,45.51,133.31-10.41,29.63-49.17,68.39-81.68,72.1-1.81.21-3.62.31-5.38.31-17.25,0-29.48-9.8-42.44-20.17-10.04-8.04-20.43-16.36-33.66-20.3Z"/>
  <path class="cls-1" d="m486.77,80.89c7.55,0,15.89-1.85,23.24-3.49,3.77-.84,7.33-1.63,10.17-2.01,5.37-.72,10.58-1.02,15.62-1.32,10.5-.61,20.42-1.18,28.29-5.66,6.34-3.61,10.97-9.56,14.14-18.19,5.7-15.52,12.73-32.94,22.71-50.22h-.77c-9.9,17.21-16.89,34.55-22.57,49.99-3.12,8.48-7.64,14.31-13.84,17.84-7.74,4.41-17.58,4.97-28,5.57-5.06.29-10.28.59-15.68,1.32-2.87.39-6.44,1.18-10.22,2.02-7.32,1.63-15.61,3.47-23.09,3.47s-12.54-1.79-15.9-5.46c-8.16-8.96-4.07-29.41-1.88-40.39l.35-1.74c2.5-12.66,6.5-23.44,12.16-32.63h-.78c-5.58,9.18-9.55,19.91-12.03,32.5l-.35,1.74c-2.22,11.1-6.35,31.77,2.04,40.97,3.49,3.82,8.85,5.68,16.39,5.68Z"/>
  <path class="cls-1" d="m658.63,0h-1.53c-2.76,2.94-5.12,5.63-6.91,8.07-24.48,33.32-35.34,64.07-33.2,94.02.83,11.65-.59,19.36-4.37,23.57-2.4,2.68-5.83,3.99-10.48,3.99-6.46,0-14.42-2.46-22.85-5.07-7.65-2.37-15.56-4.82-23.03-5.63-5.61-.61-11.24-.91-17.2-.91-18.81,0-36.69,3-55.61,6.17-3.18.53-6.37,1.07-9.58,1.59l-.24.04c-6.64,1.08-14.16,2.31-21.49,2.31-13.85,0-22.72-4.6-27.11-14.06-9.16-19.76-6.6-43.55-4.34-64.54.31-2.83.61-5.63.88-8.38,1.51-15.34,4.16-28.98,8.06-41.16h-1.18c-3.86,12.17-6.49,25.77-7.99,41.05-.27,2.75-.57,5.55-.88,8.37-2.28,21.13-4.86,45.08,4.44,65.12,4.59,9.89,13.78,14.7,28.11,14.7,7.42,0,14.99-1.23,21.67-2.32l.24-.04c3.21-.52,6.41-1.06,9.59-1.59,18.88-3.17,36.71-6.16,55.43-6.16,5.92,0,11.51.3,17.08.9,7.36.81,15.22,3.24,22.82,5.59,8.51,2.64,16.55,5.12,23.17,5.12,4.98,0,8.68-1.42,11.31-4.36,3.98-4.45,5.5-12.42,4.64-24.39-2.12-29.67,8.67-60.18,32.98-93.28,1.91-2.6,4.51-5.53,7.55-8.73Z"/>
  <path class="cls-1" d="m651.4,168.45c-7.53,5.32-17.83,7.91-31.5,7.91-16.06,0-34.02-3.6-49.87-6.78-9.34-1.87-18.17-3.64-25.37-4.41-3.53-.38-13-1.25-24.68-1.25-21.63,0-49.37,2.93-58.69,16.91-4.05,6.08-4.22,13.71-.49,22.7,1.75,4.22,6.27,6.51,10.65,8.73,3.46,1.75,7.04,3.57,9.03,6.27,2.36,3.21,3.75,7.7,5.09,12.04,1.79,5.78,3.64,11.77,7.84,15.3,5.21,4.38,10.93,6.42,18,6.42,4.9,0,9.92-.99,14.77-1.95,4.79-.95,9.75-1.93,14.53-1.93s8.59.91,12.23,2.79c8.82,4.55,12.54,10.68,16.13,16.61,4.68,7.73,9.1,15.03,23.67,18.44,30.49,7.14,38.84,14.6,59.03,32.63,2.6,2.32,5.4,4.82,8.46,7.51,7.27,6.38,12.63,13.67,17.82,20.72,4.63,6.29,9.42,12.79,15.58,18.72,7.58,7.3,14.72,10.55,21.62,13.69,9.2,4.19,17.89,8.14,25.77,21.69l1.23,2.13c9.92,17.17,19.94,33.05,26.1,33.05.99,0,1.84-.39,2.54-1.16,2.22-2.43,2.82-8.9,1.84-19.78-.58-6.37-5.18-12.07-9.63-17.57-4.8-5.94-9.33-11.55-9.06-17.75.33-7.43,4.82-11.09,9.57-14.96,3.48-2.83,7.08-5.76,9.18-10.3,5.06-10.9,6.29-20.67,7.47-30.11,1.65-13.14,3.21-25.56,14.96-39.61,21.03-25.13,50.54-44.12,83.08-53.46,10.84-3.11,20.87-4.62,30.67-4.62,33.25,0,57.1,18.1,82.36,37.27,2.86,2.17,5.75,4.35,8.66,6.53v-1.94c-2.6-1.94-5.17-3.89-7.72-5.83-25.47-19.33-49.53-37.58-83.29-37.58-9.94,0-20.11,1.53-31.1,4.69-32.83,9.43-62.61,28.59-83.84,53.96-12.05,14.39-13.63,27.03-15.31,40.41-1.17,9.33-2.38,18.97-7.34,29.65-1.96,4.21-5.41,7.03-8.75,9.75-4.81,3.92-9.78,7.97-10.14,16.1-.3,6.79,4.63,12.89,9.4,18.79,4.3,5.33,8.75,10.84,9.29,16.74,1.16,12.79-.14,17.17-1.44,18.59-.4.44-.85.65-1.4.65-6.11,0-19.18-22.62-24.76-32.27l-1.23-2.13c-8.13-13.98-17.04-18.03-26.47-22.32-6.78-3.09-13.8-6.28-21.18-13.4-6.07-5.84-10.81-12.29-15.4-18.53-5.24-7.11-10.65-14.47-18.05-20.96-3.06-2.69-5.85-5.18-8.45-7.5-20.4-18.21-28.84-25.75-59.71-32.98-13.94-3.27-18.19-10.29-22.7-17.73-3.7-6.11-7.53-12.43-16.75-17.18-3.86-1.99-8.09-2.96-12.94-2.96s-9.97,1-14.84,1.96c-4.78.95-9.72,1.92-14.47,1.92-6.68,0-12.08-1.92-17-6.06-3.85-3.24-5.63-9-7.35-14.57-1.38-4.47-2.81-9.09-5.32-12.51-2.2-3-5.95-4.9-9.58-6.74-4.31-2.18-8.39-4.25-9.92-7.94-3.51-8.47-3.4-15.62.35-21.23,8.94-13.4,36.15-16.22,57.39-16.22,11.6,0,21.01.87,24.51,1.24,7.13.76,15.92,2.52,25.23,4.39,15.92,3.19,33.96,6.81,50.18,6.81,14,0,24.6-2.68,32.4-8.19,19.43-13.75,13.86-34.49,8.47-54.54-5.76-21.42-11.71-43.57,12.22-58.03,2.87-1.73,6.7-2.61,11.4-2.61,14.31,0,34.47,7.83,53.96,15.4,16.98,6.6,33.01,12.82,43.45,13.07,1.5.03,3,.05,4.5.05h.02c22.42,0,45.09-3.87,67.01-7.61,21.88-3.74,44.51-7.6,66.85-7.6,15.63,0,29.74,1.86,43.14,5.69,12.38,3.54,24.61,8.21,36.68,13.56v-1.7c-11.92-5.26-24-9.86-36.25-13.36-13.53-3.87-27.79-5.75-43.56-5.75-22.47,0-45.17,3.87-67.11,7.62-21.86,3.73-44.46,7.59-66.75,7.59-1.52.05-2.99-.02-4.48-.05-10.16-.24-26.07-6.42-42.92-12.97-19.63-7.62-39.92-15.51-54.53-15.51-5.05,0-9.04.93-12.2,2.83-24.93,15.06-18.83,37.79-12.92,59.76,5.49,20.44,10.68,39.74-7.86,52.87Z"/>
  <path class="cls-1" d="m462.59,111.69c4.75,0,10.26-.58,18.43-1.96,20.72-3.48,41.28-5.1,64.71-5.1,5.88,0,11.93.1,18.48.3,2.28.07,4.27.11,6.07.11,10.85,0,17.18-1.32,21.85-4.55,5.58-3.86,8.9-10.63,11.08-22.64,5.01-27.55,16.06-52.32,34.72-77.86h-.82c-18.55,25.49-29.54,50.23-34.55,77.75-2.15,11.81-5.39,18.46-10.81,22.21-4.55,3.15-10.77,4.43-21.47,4.43-1.8,0-3.77-.03-6.05-.1-6.56-.2-12.61-.3-18.51-.3-23.47,0-44.07,1.62-64.82,5.11-8.13,1.36-13.61,1.95-18.32,1.95-13.39,0-22.98-4.49-26.32-26.39-3.19-20.94-.36-43.11,2.58-58.03,1.9-9.62,4.52-18.46,7.82-26.61h-.7c-3.28,8.1-5.88,16.88-7.78,26.48-2.95,14.96-5.79,37.22-2.59,58.25,2.92,19.15,10.74,26.96,26.98,26.96Z"/>
  <path class="cls-1" d="m471.75,95h0c2.08,0,4.34-.2,6.7-.6,17.64-2.96,36.53-4.7,56.13-5.18,4.57-.11,8.96,0,13.16.11,2.82.07,5.48.14,8.07.14,7.98,0,16.25-.62,22.63-5.1,5.29-3.72,9.06-9.88,11.52-18.85,6.67-24.33,16.26-45.87,29.12-65.52h-.79c-12.78,19.62-22.32,41.1-28.97,65.35-2.42,8.81-6.1,14.85-11.26,18.47-6.23,4.38-14.38,4.98-22.25,4.98-2.59,0-5.24-.07-8.05-.14-4.2-.11-8.6-.22-13.19-.11-19.64.48-38.55,2.23-56.22,5.19-10.14,1.7-17.69-.33-22.4-6.06-10.72-13.05-4.95-42.33-1.85-58.06,2.17-10.99,5.4-20.82,9.68-29.62h-.75c-4.23,8.78-7.43,18.56-9.58,29.49-3.12,15.84-8.93,45.31,1.98,58.61,3.76,4.58,9.25,6.9,16.32,6.9Z"/>
</svg>